<svg width="815" height="354" viewBox="0 0 815 354" fill="none" xmlns="http://www.w3.org/2000/svg">
<path d="M814.49 78.51C814.73 78.61 814.77 80.24 814.52 80.35C812.73 81.18 812.76 82.77 812.96 84.2C813.36 87.16 811.43 89.08 810.16 91.3C810.02 91.54 809.61 91.7 809.31 91.74C806.53 92.09 805.13 94.05 803.63 96.15C802.75 97.38 801.1 98.03 799.87 99.04C799.06 99.72 798.15 100.45 797.7 101.36C796.78 103.22 794.23 103.99 794.45 106.67C794.51 107.51 793.35 108.44 792.65 109.46C794.62 111.25 796.89 112.87 798.58 114.97C800.23 117.02 802.28 119.06 801.65 122.29C801.36 123.78 801.45 125.55 801.99 126.96C802.82 129.12 804.24 131.06 805.32 133.15C805.67 133.83 805.89 134.65 805.95 135.42C806.08 137 806.05 138.59 806.09 140.17C806.11 140.67 805.93 141.36 806.19 141.64C809.75 145.49 807.91 150.3 808.56 154.66C808.78 156.16 808.37 157.67 809.9 158.94C810.56 159.48 810.4 161.12 810.43 162.27C810.51 164.92 810.54 167.59 810.45 170.24C810.42 170.96 810.08 171.83 809.58 172.33C808.15 173.79 808.33 175.21 809.35 176.73C810.47 178.41 811.26 179.64 809.38 181.81C808.32 183.03 808.58 186.36 809.5 188.06C810.43 189.75 810.48 190.75 809.64 192.21C809.15 193.08 808.56 194.03 808.49 194.98C808.31 197.3 808.61 199.67 808.32 201.97C808.13 203.56 807.24 205.06 806.72 206.62C806.47 207.38 806.2 208.18 806.18 208.96C806.08 214.46 806.07 219.96 805.96 225.46C805.93 226.98 806 228.42 804.54 229.73C803.74 230.45 804.01 232.37 803.83 233.75C803.57 235.72 804.18 237.8 802.03 239.37C801.32 239.89 801.67 241.87 801.55 243.18C801.36 245.05 802.07 247.06 799.8 248.47C799.08 248.92 799.08 250.97 799.21 252.24C799.53 255.49 797.67 257.47 795.55 259.39C795.21 259.69 794.72 260.09 794.7 260.46C794.51 264.57 790.96 266.03 788.57 268.41C787.57 269.41 785.94 270.51 785.91 271.6C785.83 274.07 784.02 275.13 782.84 276.71C782.58 277.06 782.07 277.32 781.63 277.4C778.48 278.01 776.35 279.64 775.86 282.99C775.81 283.3 775.67 283.74 775.45 283.85C773.32 284.91 770.99 285.66 769.05 286.99C766.55 288.7 763.81 288.75 761.04 289.24C759.74 289.47 758.72 291.15 757.51 292.09C756.84 292.61 756.02 292.93 755.3 293.38C754.49 293.89 753.73 294.49 752.91 294.97C752.31 295.31 751.66 295.67 750.99 295.75C748.93 295.99 747.05 296.49 745.04 297.22C741.73 298.41 737.76 299.24 734.2 296.51C733.32 295.83 731.04 295.99 730.01 296.68C728.01 298.01 725.18 298.33 723.36 296.67C723.24 296.56 723.15 296.3 723.04 296.3C718.76 296.28 714.48 296.27 710.2 296.31C710.03 296.31 709.75 296.81 709.7 297.1C709.07 300.97 705.76 302.65 703.32 305.06C702.35 306.01 701.25 307.06 700.79 308.28C699.6 311.46 696.93 314.2 697.48 317.91C697.85 320.37 695.89 321.59 694.81 323.1C693.42 325.01 691.21 326.18 690.72 328.93C690.49 330.19 689.03 331.27 688.05 332.36C685.26 335.47 681.66 337.68 679.19 341.24C677.38 343.85 674.5 345.74 672.04 347.88C671.65 348.21 670.91 348.1 670.39 348.32C669.33 348.78 668.33 349.39 667.26 349.81C666.21 350.23 665.11 350.66 664 350.77C662.18 350.95 660.33 350.76 658.52 350.95C657.77 351.03 657.08 351.67 656.37 352.05C655.75 352.37 655.14 352.94 654.51 352.97C651.36 353.09 648.2 353.11 645.05 353.09C642.72 353.07 640.38 353.06 638.07 352.82C637.11 352.72 636.24 351.95 635.27 351.67C634.5 351.44 633.42 351.13 632.85 351.47C629.46 353.52 629.26 353.49 628.19 349.75C628.13 349.53 627.91 349.36 627.64 349C625.36 351.48 623.75 351.43 621.19 349.4C618.65 347.38 615.91 345.64 613.3 343.71C612.3 342.98 610.88 342.23 610.61 341.23C609.98 338.95 608.33 339.14 606.91 339.41C603.81 340.01 602.68 337.52 600.91 336C600.62 335.75 600.42 335.06 600.24 335.08C597.56 335.44 595.97 333.28 593.92 332.29C591.87 331.3 589.16 330.57 589.28 327.34C589.3 326.95 588.93 326.29 588.59 326.17C586.95 325.57 585.42 324.02 584.25 323.72C581.32 322.94 579.47 321.2 577.52 319.28C577.31 319.08 576.9 318.95 576.61 318.99C572.93 319.52 570.65 317.47 568.61 314.85C568.33 314.49 567.53 314.28 567.04 314.38C563.83 314.98 562.04 312.71 559.95 311.02C559.3 310.49 558.57 310.07 557.84 309.66C555.42 308.31 552.98 306.97 550.53 305.67C549.91 305.35 549.2 305.06 548.52 305.03C546.36 304.93 544.19 305 542.03 304.91C540.71 304.86 539.11 305.34 538.65 303.26C538.59 302.97 537.5 302.74 536.89 302.75C533.06 302.77 529.22 302.8 525.4 302.99C524.55 303.03 523.74 303.75 522.9 304.11C522.25 304.39 521.55 304.83 520.9 304.78C518.14 304.59 515.12 305.85 512.73 303.15C512.34 302.72 510.36 303.08 509.62 303.69C507.47 305.47 503.78 305.44 501.87 303.45C500.72 302.25 499.36 301.26 498.11 300.15C497.88 299.94 497.62 299.64 497.59 299.36C497.33 296.5 495.76 294.63 493.36 293.17C492.58 292.7 492.33 291.44 491.67 290.68C490.79 289.68 489.76 288.82 488.57 287.68C488.98 287.33 489.64 287.02 489.85 286.52C490.08 285.96 490.03 284.69 489.89 284.66C487.96 284.21 488.52 282.66 488.33 281.44C488.08 279.85 488.78 277.95 486.31 277.17C485.45 276.9 484.97 275.32 484.38 274.3C482.52 271.08 480.94 267.66 478.75 264.68C477.55 263.04 476.26 260.83 473.33 261.25C471.04 261.58 468.67 261.44 466.35 261.36C465.02 261.32 463.62 261.6 462.71 259.9C462.1 258.74 457.34 259.21 455.97 260.29C454.42 261.51 453.21 261.2 451.38 260.27C449.7 259.42 447.25 259.9 445.17 260.1C444.08 260.2 443.09 261.22 442 261.34C440.19 261.55 438.31 261.16 436.52 261.4C435.37 261.56 434.31 262.39 433.22 262.93C433.08 263 433.02 263.24 432.89 263.3C430.43 264.26 427.98 265.87 425.48 265.98C422.79 266.1 421.67 268.17 419.7 269.07C418.47 269.64 417.69 271.16 416.65 272.19C413.96 274.88 411.24 277.53 408.54 280.21C408.37 280.37 408.2 280.64 408.21 280.85C408.29 283.49 406.99 284.55 404.41 284.46C404.06 284.44 403.66 285.51 403.31 286.1C402.75 287.03 401.96 287.91 401.72 288.92C400.89 292.26 397.02 290.92 395.37 293.3C393.95 295.35 390.88 296.38 389.82 298.5C388.69 300.78 387.17 300.31 385.61 300.5C384.28 300.66 383.26 300.75 381.97 301.79C380.02 303.35 377.27 304.38 374.75 304.67C370.55 305.17 366.26 304.82 362.02 305.02C361.09 305.06 360.23 305.96 359.29 306.36C358.6 306.65 357.84 306.88 357.09 306.95C355.24 307.11 353.73 307.63 351.98 308.57C349.58 309.87 347.3 312.04 344.11 311.86C341.89 311.74 339.89 312.14 337.64 313.25C334.98 314.56 331.35 313.88 328.14 314.06C327 311.15 323.27 312.86 321.57 310.27C320.79 309.08 318.14 309.05 316.97 307.31C316.36 306.43 315.54 305.62 314.65 305.01C312.15 303.32 309.05 302.2 307.17 300.01C305.27 297.8 302.21 297.9 300.6 295.59C299.98 294.7 298.95 294.1 298.34 293.21C297.26 291.62 295.66 291.51 294.04 290.99C292.63 290.53 291.6 288.92 290.37 287.85C289.91 287.45 289.4 286.95 288.84 286.85C287.03 286.5 285.84 285.82 285.71 283.69C285.68 283.18 284.37 282.57 283.55 282.33C281.83 281.82 279.62 282.57 278.65 280.23C278.55 279.99 277.88 280.04 277.51 279.87C276.32 279.32 275.2 278.58 273.97 278.19C272.65 277.77 271.23 277.44 269.85 277.46C265.04 277.51 261.58 275 258.38 271.83C257.96 271.41 257.37 270.97 256.81 270.89C255.3 270.69 253.48 271.22 253.19 268.86C253.18 268.74 252.96 268.61 252.82 268.56C250.38 267.77 247.94 267 245.51 266.22C244.72 265.97 243.66 265.97 243.18 265.44C241.41 263.49 239.84 263.32 237.94 265.27C237.6 265.62 236 265.48 235.81 265.13C234.96 263.54 233.65 263.93 232.34 263.87C230.64 263.78 228.73 264.41 227.64 262.07C227.44 261.63 224.92 262.13 223.51 262.43C222.2 262.7 220.96 263.62 219.67 263.68C214.62 263.91 209.56 263.9 204.51 263.99C204.18 263.99 203.65 264 203.57 264.16C202.35 266.85 199.78 265.89 197.76 266.43C196.81 266.69 195.96 267.33 194.79 267.94C194.76 267.92 194.32 267.8 194.12 267.51C193.23 266.26 192.5 266.06 191.41 267.4C191.08 267.81 189.91 267.75 189.21 267.58C188.2 267.33 187.3 266.53 186.3 266.43C184.49 266.24 182.64 266.38 180.81 266.4C179.44 266.41 177.93 266.05 177.14 267.77C177.03 268.02 176.38 268.2 176.03 268.15C172.38 267.59 170.51 270.21 168.01 272.11C165.26 274.19 163.75 277.14 161.43 279.39C160.1 280.69 159.86 281.97 159.28 283.43C158.77 284.73 157.24 285.58 156.4 286.79C155.7 287.79 155.12 288.99 154.9 290.18C154.6 291.8 154.84 293.52 154.56 295.15C154.38 296.17 153.65 297.09 153.22 298.08C152.94 298.73 152.7 299.41 152.55 300.1C152.3 301.27 152.51 302.57 150.79 303.02C150.34 303.14 150.02 304.58 150.03 305.41C150.04 308.4 148.54 310.39 146.22 312.06C145.39 312.66 144.93 313.74 144.22 314.54C143.11 315.8 141.97 317.04 140.78 318.23C140.47 318.54 139.94 318.73 139.48 318.79C138.16 318.96 136.76 318.91 136.29 320.58C136.26 320.71 136.06 320.83 135.92 320.88C133.54 321.75 130.91 322.22 128.84 323.56C126.7 324.96 123.53 324.37 122.13 327.15C122.01 327.37 120.58 327.31 120.17 326.94C118.09 325.04 113.04 325.11 110.88 326.86C108.99 328.4 107.2 330.24 104.33 330.17C103.32 330.14 102.29 331.15 101.26 331.66C100.84 331.88 100.36 332.24 99.95 332.2C97.49 331.92 96.03 333.73 94.89 335.2C93.69 336.75 92.43 336.95 90.84 336.93C89.59 336.91 88.34 336.78 87.09 336.84C84.91 336.94 83.37 336.48 83.23 333.83C83.2 333.34 81.91 332.69 81.11 332.52C79.23 332.12 76.89 333.25 75.69 330.68C75.57 330.42 74.75 330.35 74.27 330.4C70.88 330.79 67.13 328.93 64.13 331.98C63.95 332.17 63.48 332.19 63.17 332.14C59.76 331.62 57.59 333.39 55.86 336.02C55.65 336.34 55.26 336.76 54.95 336.76C51.97 336.84 50.55 339.27 48.57 340.87C48.21 341.17 47.34 341.33 47.03 341.1C45.92 340.29 44.85 339.37 43.94 338.33C42.62 336.8 41.25 337.17 39.74 337.88C38.62 338.41 37.46 339.21 36.29 339.25C31.46 339.43 26.63 339.3 21.8 339.45C20.82 339.48 19.76 340.14 18.91 340.75C17.36 341.86 15.95 341.57 14.65 340.5C12.85 339.02 9.03004 339.03 7.31004 340.6C7.03004 340.86 6.52004 341.26 6.32004 341.17C4.41004 340.28 1.72004 339.75 0.890037 338.23C0.050037 336.67 -0.229963 334.01 1.72004 332.03C2.52004 331.21 2.68004 329.6 2.81004 328.32C2.99004 326.59 2.83004 324.83 2.89004 323.08C2.91004 322.44 3.00004 321.34 3.29004 321.25C5.19004 320.69 4.90004 319.22 5.00004 317.84C5.03004 317.39 5.27004 316.64 5.55004 316.57C8.26004 315.86 7.31004 313.65 7.31004 312.03C7.31004 310.41 8.36004 308.33 6.14004 307.05C5.83004 306.87 5.85004 305.77 6.02004 305.19C6.35004 304.12 6.93004 303.12 7.34004 302.07C7.52004 301.62 7.37004 300.85 7.65004 300.67C11.09 298.47 8.67004 295.08 9.36004 292.33C9.43004 292.05 8.95004 291.46 8.58004 291.24C7.28004 290.46 7.18004 289.81 8.48004 288.85C9.03004 288.44 9.48004 287.56 9.52004 286.87C9.63004 285.05 9.42004 283.21 9.49004 281.38C9.55004 279.71 9.16004 277.84 11.35 276.91C11.81 276.71 11.99 275.44 12 274.67C12.05 270.42 11.93 266.18 12.06 261.93C12.1 260.56 12.72 259.21 13.22 257.32C11.55 255.84 11.22 253.82 13.6 251.5C14.28 250.83 14.06 249.28 14.33 248.15C14.53 247.28 14.59 246.13 15.17 245.65C16.39 244.62 16.67 244.04 15.17 243.04C14.82 242.81 14.74 241.44 15.07 241.02C16.84 238.76 16.75 233.94 15.19 231.52C14.57 230.57 14.48 228.13 15.05 227.75C17.01 226.48 16.31 224.7 16.66 223.09C16.93 221.91 17.54 220.8 17.9 219.63C18.26 218.47 18.66 217.29 18.76 216.09C18.92 214.07 18.36 211.9 20.47 210.47C20.66 210.34 20.78 209.67 20.68 209.59C17.82 207.45 19.4 204.37 19.08 201.74C18.78 199.19 18.83 196.59 18.9 194.01C18.93 192.52 18.71 190.9 20.71 190.02C21.09 189.86 20.91 187.04 20.18 186.04C18.87 184.27 18.59 182.82 20.08 181.28C20.54 180.81 20.88 180.04 20.93 179.39C21.08 177.23 21.06 175.06 21.12 172.9C21.16 171.55 20.72 169.98 22.81 169.57C23.12 169.51 23.37 168.47 23.41 167.87C23.53 166.21 23.41 164.53 23.6 162.88C23.69 162.11 24.29 161.41 24.65 160.67C24.96 160.05 25.31 159.44 25.56 158.8C26.06 157.5 26.51 156.19 27.13 154.49C26.89 153.8 26.35 152.48 25.97 151.11C25.86 150.7 26.03 149.86 26.31 149.74C28.36 148.81 27.79 147.01 27.86 145.43C27.95 143.27 27.8 141.07 28.14 138.95C28.35 137.6 29.5 136.42 29.79 135.08C30.06 133.84 30.16 131.6 29.59 131.32C27.21 130.17 28.29 128.65 28.66 127.13C29.11 125.26 29.63 123.41 29.96 121.52C30.31 119.49 29.6 117.09 32.22 116.13C29.65 112.43 29.6 108.94 32 105.24C32.65 104.23 32.44 102.66 32.6 101.35C32.83 99.36 32.26 97.15 34.46 95.74C34.84 95.5 34.79 94.51 34.85 93.86C35 92.18 34.53 90.33 36.57 89.28C36.93 89.09 36.96 88.08 36.98 87.44C37.05 85.61 36.83 83.74 37.12 81.95C37.35 80.6 38.24 79.38 38.76 78.07C39.08 77.25 39.45 76.39 39.48 75.54C39.63 71.72 39.66 67.9 39.74 64.08C39.74 63.75 39.7 63.17 39.82 63.13C42.16 62.32 41.42 59.57 42.55 58.5C44.56 56.6 43.83 54.59 44 52.55C44.14 50.79 43.18 48.59 45.85 47.79C46.02 47.74 46.2 47.37 46.18 47.16C45.97 44.07 48.73 43.25 50.37 41.56C51.5 40.4 52.47 39.1 53.51 37.86C53.71 37.62 53.91 37.14 54.1 37.15C58.15 37.24 61.55 33.85 65.74 34.98C66.7 35.24 67.52 35.97 68.58 36.59C70.13 33.6 73.13 34.9 75.54 34.64C78.74 34.29 82.02 34.69 85.26 34.68C87.35 34.67 89.45 35.09 91.06 32.86C92.09 31.45 96.08 32.31 97.23 33.64C97.69 34.18 98.59 34.62 99.28 34.61C105.59 34.56 111.9 34.41 118.21 34.24C118.71 34.22 119.21 33.8 119.69 33.52C120.41 33.12 121.12 32.68 121.83 32.25C122.72 31.71 123.61 31.16 124.5 30.62C124.85 30.4 125.19 30.01 125.53 30C128.53 29.97 129.84 27.66 131.76 25.93C133.09 24.72 134.34 22.48 136.95 23.1C137.38 23.21 138.14 22.47 138.56 21.97C140.58 19.59 142.53 17.14 144.63 14.58C145.57 15.32 146.79 17.4 147.89 14.4C148.03 14.01 149.26 14.07 149.93 13.8C150.85 13.44 151.69 12.83 152.64 12.58C153.22 12.43 154.13 12.53 154.53 12.91C155.99 14.27 157.34 13.82 158.79 13.01C159.61 12.56 160.47 12.19 161.3 11.78C162.31 11.28 163.3 10.76 164.32 10.28C164.91 9.99996 165.52 9.61996 166.14 9.58996C168.63 9.44996 171.15 9.21996 173.61 9.46996C174.6 9.57996 175.43 11.36 176.4 11.44C177.23 11.5 178.12 9.69996 179.06 9.62996C180.17 9.54996 181.36 10.43 182.52 10.9C183.09 11.14 183.67 11.58 184.25 11.58C190.58 11.64 196.91 11.63 203.24 11.62C203.64 11.62 204.28 11.62 204.41 11.39C206.45 7.81997 209.71 9.72997 212.43 9.70996C214.06 9.69996 216.23 9.19996 217.19 11.5C217.22 11.59 218.75 11.33 218.78 11.11C219.01 9.49996 220.09 9.26996 221.33 9.40996C223.62 9.66996 226.19 8.62996 228.09 10.84C229.35 12.3 231.8 11.9 232.93 10.36C233.38 9.74996 234.54 9.40996 235.38 9.39996C241.43 9.28996 247.49 9.33996 253.55 9.19996C254.46 9.17996 255.35 8.42997 256.28 8.06996C256.94 7.80997 257.64 7.47997 258.33 7.45997C267.63 7.20997 276.93 6.95997 286.23 6.80997C288.75 6.76997 291.38 7.79996 293.56 5.67997C293.61 5.62996 293.76 5.57997 293.79 5.59997C295.76 7.56997 297.21 5.67997 298.94 5.05997C300.01 4.68997 301.48 4.49997 302.15 6.40997C302.61 7.72997 307.44 7.71996 308.24 6.28997C309.37 4.27997 311.05 4.83997 312.59 4.79997C314.03 4.75997 315.8 4.12997 316.26 6.58997C316.38 7.24997 317.76 7.61997 318.43 8.24997C320.47 10.18 322.93 11.9 324.32 14.23C325.6 16.39 327.17 16.46 328.54 16.37C329.69 18.32 330.64 19.85 331.49 21.44C331.69 21.81 331.73 22.62 331.49 22.81C328.44 25.32 330.01 28.84 329.61 31.86C329.36 33.8 329.13 36.24 331.52 37.63C331.88 37.84 331.83 38.87 331.84 39.53C331.96 45.1 331.94 50.68 332.18 56.25C332.31 59.28 329.69 60.31 328.42 62.31C328.17 62.69 327.69 63.16 327.78 63.46C327.87 63.78 328.46 64.08 328.89 64.17C330.21 64.46 331.8 64.17 332.16 66.15C332.2 66.39 333.15 66.6 333.68 66.61C336.41 66.66 339.24 67.08 341.83 66.49C343.64 66.07 345.12 64.15 347.05 66.2C347.1 66.2 347.61 65.87 347.75 65.63C348.71 63.92 349.52 63.93 350.5 65.67C350.78 66.17 351.62 66.59 352.23 66.63C354.14 66.76 356.07 66.82 357.97 66.65C359.65 66.5 361.31 66 362.9 65.67C364.44 65.98 366.08 66.48 367.74 66.62C370.47 66.85 373.23 66.8 375.97 66.98C376.62 67.03 377.36 67.4 377.84 67.85C379.17 69.12 381.19 69.27 382.29 67.85C383.28 66.58 383.9 66.52 384.92 67.82C386.62 70 392.39 69.71 394.05 67.46C394.19 67.27 394.41 66.91 394.51 66.94C397.29 67.7 398.41 64.97 400.27 63.96C401.59 63.24 402.1 61.06 402.99 59.55C403.45 58.78 403.93 58.02 404.44 57.28C404.66 56.96 405.23 56.7 405.21 56.44C405 53.35 407.9 52.55 409.32 50.66C411.11 48.29 412.85 45.86 412.49 42.56C412.35 41.25 412.07 39.66 413.96 39.01C414.24 38.91 414.35 38.15 414.41 37.67C414.6 36.22 414.38 34.66 416.23 33.93C416.62 33.78 416.82 32.78 416.86 32.16C416.97 30.58 417.02 28.99 416.95 27.42C416.85 25.15 417.16 23.83 419.83 22.66C423.2 21.19 426.61 19.72 429.99 18.22C430.58 17.96 430.95 16.7 431.42 16.7C432.79 16.7 434.4 16.73 435.46 17.43C437.2 18.57 438.61 18.67 440.13 17.26C440.56 16.86 441.86 16.77 442.28 17.12C444.81 19.22 449.2 19.23 451.82 16.97C453.47 15.55 459.94 16.24 461.54 17.82C463.09 17.33 464.48 16.83 465.91 16.47C466.33 16.37 467.05 16.49 467.31 16.78C469.38 19.18 472.18 18.35 474.72 18.46C477.21 18.56 479.73 18.2 482.2 18.43C483.55 18.56 484.82 19.51 486.14 20.04C486.89 20.33 487.72 20.44 488.43 20.79C489.24 21.19 489.95 21.76 490.71 22.25C491.16 22.55 491.59 23.01 492.08 23.1C493.5 23.35 495.1 23.07 495.8 24.93C495.91 25.2 496.87 25.19 497.44 25.22C499.27 25.29 501.13 25.12 502.92 25.43C504.19 25.65 505.36 26.48 506.56 27.06C506.76 27.17 506.9 27.57 507.07 27.57C509.22 27.63 511.06 27.98 512.78 29.73C513.64 30.6 515.91 29.79 516.7 31.87C516.88 32.34 518.53 32.38 519.51 32.39C521.59 32.39 523.67 32.26 525.75 32.16C526.16 32.14 526.68 32.16 526.95 31.93C530.96 28.39 535.55 30.33 539.92 30.63C540.72 30.69 541.47 32.2 542.22 32.19C543.84 32.16 545.45 31.57 547.62 31.09C549.78 32.77 550.36 32.66 553.4 30.78C554.31 30.23 556.47 30.07 556.87 30.61C558.47 32.74 560.59 32.08 562.55 32.21C564.46 32.33 566.38 32.24 568.3 32.22C569.51 32.2 570.51 32.21 571.46 30.89C572.07 30.05 573.99 29.94 575.34 29.87C578 29.75 580.69 30.09 583.33 29.86C584.84 29.73 586.26 28.82 587.75 28.33C588.44 28.1 589.18 27.93 589.9 27.89C592.15 27.78 594.4 27.85 596.64 27.63C597.49 27.55 598.28 26.83 599.13 26.5C599.86 26.22 600.65 26.08 601.4 25.87C603.27 25.36 605.13 24.85 607.41 24.22C608.43 25.93 611.13 26.19 612.95 25.15C615.52 23.69 617.44 24.08 619.73 25.24C620.4 25.58 621.39 25.23 622.2 25.37C622.8 25.47 623.55 25.68 623.9 26.11C625.48 28.07 627.13 28.24 629.03 26.6C629.39 26.3 630.4 26.1 630.44 26.18C631.45 28.32 633.41 27.46 635.03 27.74C636.38 27.98 637.69 28.47 638.89 28.81C640.77 28.48 642.72 27.98 644.69 27.82C646.59 27.67 648.52 27.84 650.43 27.91C651.87 27.96 653.44 27.5 654.38 29.27C654.58 29.65 655.59 29.68 656.23 29.71C659.72 29.88 663.21 30.16 666.69 30.07C668.02 30.04 669.46 29.34 670.61 28.57C672.11 27.57 676.4 27.67 677.52 29.02C677.63 29.14 677.71 29.4 677.81 29.41C680.93 29.52 682.86 33 686.36 32.3C688.2 31.92 690.18 32.18 692.09 32.16C693.54 32.14 694.71 32.06 696.08 30.94C697.35 29.9 699.7 30.09 701.58 29.9C704.36 29.62 706.18 27.65 707.1 25.12C707.66 23.61 709.33 22.4 710.7 21.31C713.02 19.45 715.55 17.84 717.89 16C719.03 15.11 719.95 13.94 720.98 12.89C721.26 12.61 721.56 12.09 721.84 12.1C724.97 12.21 725.74 9.29996 727.59 7.77997C728.82 6.76997 730.23 5.88997 731.7 5.29997C734.03 4.36997 736.16 3.35996 737.29 0.899965C737.35 0.759965 738.66 1.21996 739.4 1.33996C740.01 1.42997 740.94 1.70996 741.2 1.41996C742.59 -0.110035 744.54 -0.0900351 746.11 1.35996C746.57 1.78996 747.69 1.73996 748.44 1.56997C749.48 1.33996 750.46 0.469965 751.47 0.449965C760.13 0.299965 768.79 0.269965 777.44 0.259965C778.87 0.259965 780.34 0.039965 781.37 1.71996C781.74 2.30996 783.36 2.10996 784.39 2.31996C785.72 2.57996 787.61 1.95996 787.68 4.34997C787.68 4.57997 788.14 5.02997 788.31 4.99997C792.32 4.16997 793.13 8.52996 795.91 9.66996C795.99 9.69996 796.08 9.75996 796.11 9.81996C797.18 12.27 799.15 14.74 799.09 17.16C799.01 20.41 801.29 21.23 802.78 23.01C804.12 24.61 806.65 25.51 806.2 28.31C806.14 28.66 806.37 29.34 806.59 29.4C809.07 30.05 808.42 32.04 808.44 33.68C808.52 40.09 808.5 46.49 808.62 52.9C808.64 53.74 809.31 54.56 809.65 55.41C809.95 56.14 810.39 56.88 810.43 57.64C810.55 59.63 810.48 61.63 810.51 63.63C810.52 65 810.16 66.52 812.2 66.97C812.54 67.04 812.83 68.06 812.88 68.66C813.03 70.82 813.11 72.99 813.12 75.15C813.13 76.47 812.76 77.82 814.48 78.51H814.49ZM796.27 81.94C795.98 81.43 795.69 80.92 795.41 80.4C795.12 79.86 794.61 79.31 794.61 78.77C794.56 73.94 794.61 69.11 794.63 64.28C794.64 63.79 794.64 63.03 794.92 62.87C797.57 61.35 795.92 60.04 794.57 58.72C795.93 57.47 797.44 56.28 794.91 54.9C794.69 54.78 794.57 53.87 794.7 53.79C796.96 52.32 795.63 50.97 794.7 49.5C794.43 49.07 794.57 48.36 794.56 47.78C794.52 45.7 794.54 43.61 794.45 41.53C794.41 40.83 794.16 40.11 793.89 39.45C793.36 38.15 792.36 36.91 792.26 35.59C792 32.2 791.52 29.12 788 27.49C787.7 27.35 787.71 26.6 787.55 26.14C786.76 23.9 785.98 21.66 785.17 19.43C785.09 19.22 784.87 18.94 784.68 18.91C783.16 18.66 782.95 17.58 782.94 16.34C782.94 14.88 782.19 14.41 780.75 14.27C779.24 14.13 777.75 13.57 776.29 13.09C775.36 12.79 774.48 11.92 773.61 11.95C771.64 12.04 769.68 12.54 767.37 12.93C767.02 12.75 766.16 12.02 765.25 11.93C763.1 11.7 760.92 11.72 758.76 11.77C756.94 11.8 754.19 11.33 753.5 12.28C751.59 14.9 749.08 14.15 746.79 14.39C745.2 14.55 744.25 14.79 743.73 16.5C743.47 17.35 742.42 18.18 741.52 18.57C739.52 19.43 738.24 20.93 736.82 22.5C735.5 23.94 734.54 25.33 734.2 27.24C734.15 27.54 733.24 27.91 732.75 27.89C730.67 27.79 730.35 29.07 730.15 30.73C729.99 32.05 729.6 33.38 729.13 34.63C728.81 35.48 728.11 36.17 727.69 36.98C727.36 37.63 727.22 38.37 726.94 39.05C726.47 40.17 725.67 41.23 725.54 42.38C725.33 44.25 726.23 46.43 723.59 47.16C723.71 47.55 723.7 47.76 723.8 47.86C725.98 50 725.91 51.25 723.74 53.27C723.32 53.66 723.3 54.6 723.27 55.29C723.14 58.51 723.12 61.73 722.93 64.95C722.89 65.56 722.43 66.34 721.93 66.71C720.14 68 720.39 70.37 721.32 71C723.73 72.63 722.55 73.73 721.8 75.08C722.39 76.31 723.27 78.06 722.75 78.75C721.24 80.76 720.75 82.11 722.77 84.21C723.61 85.09 723.04 87.26 723.22 88.83C723.32 89.72 723.38 91.17 723.86 91.37C725.92 92.21 725.35 93.89 725.51 95.35C725.64 96.42 725.37 98.11 725.92 98.43C728.2 99.77 727.39 100.56 725.97 101.92C725.46 102.4 725.92 103.88 725.94 104.9C726.53 104.53 727.09 103.94 727.73 103.84C728.46 103.71 729.43 103.77 729.99 104.17C731.89 105.52 732.69 108.47 735.8 108.06C736.01 108.03 736.41 108.2 736.45 108.35C737.2 111.63 741.77 111.91 742.13 115.6C742.17 116.08 743.49 116.59 744.29 116.81C745.49 117.13 747.64 116.89 747.83 117.44C748.89 120.35 752.47 119.06 753.92 121.7C755.1 123.86 757.84 125.14 759.73 126.98C761.68 128.88 763.42 131.01 765.28 133C767.68 135.58 771.73 136.89 771.67 141.36C771.67 141.58 771.83 141.86 772 142C774.08 143.7 774.45 144.32 774.34 147.46C774.34 147.66 775.42 149.96 775.59 150C777.92 150.55 775.23 151.51 775.47 153.05C775.58 153.78 774.36 154.93 774.77 155.19C777.06 156.63 776.16 158.8 776.34 160.77C776.53 162.82 776.45 165.13 777.41 166.81C779.06 169.73 779.32 171.92 777.34 174.5C777.03 174.9 777.07 176.18 777.2 176.22C779.65 176.96 778.62 179.01 778.97 180.56C779.21 181.61 779.9 182.55 780.13 183.6C780.28 184.27 780.19 185.25 779.78 185.74C778.66 187.09 778.54 189.26 779.92 190.44C781 191.36 780.28 191.87 779.99 192.86C779.41 194.84 778.67 197.7 779.63 198.99C781.01 200.85 781.23 202.49 781.07 204.43C780.84 207.23 779.31 209.42 777.58 211.51C777.29 211.85 777.47 212.73 777.67 213.26C777.84 213.7 778.38 213.99 778.75 214.35L778 214.38C777.48 215.9 776.94 217.41 776.47 218.93C775.65 221.56 774.87 224.21 774.06 226.84C774.02 226.98 773.86 227.13 773.72 227.19C771.75 228.04 776.18 229.84 776.03 231.46C775.96 232.25 776 233.3 775.53 233.76C773.73 235.55 771.45 236.8 771.11 239.81C770.93 241.47 769.88 243.04 769.18 244.63C769.06 244.91 768.84 245.21 768.59 245.35C766.87 246.29 765.89 248.28 763.41 248.24C762.28 248.23 761.03 249.67 759.99 250.62C758.8 251.71 757.83 253.02 756.69 254.16C755.79 255.04 754.87 256.31 753.79 256.51C750.47 257.12 747.2 257.35 743.97 258.92C741.86 259.95 738.91 259.28 736.34 259.27C735.76 259.26 734.72 258.87 734.68 258.55C734.43 256.77 733.1 256.92 731.91 256.69C731.37 256.59 730.64 256.44 730.4 256.05C729.15 254.13 727.32 252.47 727.54 249.83C727.59 249.24 727.31 248.23 726.91 248.07C725.19 247.38 725.32 245.93 725.58 244.71C725.82 243.59 727.12 242.58 727.1 241.53C727.08 240.48 725.61 239.5 725.48 238.4C725.22 236.11 725.6 233.74 725.36 231.44C725.21 229.98 724.63 228.47 723.87 227.21C723.01 225.79 722.99 223.63 724.05 222.44C724.62 221.79 725.18 220.84 725.2 220.02C725.4 211.12 725.45 202.21 725.66 193.31C725.68 192.23 726.46 191.18 726.8 190.09C726.95 189.62 726.99 189.04 726.86 188.56C726.45 187.05 725.57 185.57 725.54 184.07C725.37 175.33 725.41 166.59 725.34 157.84C725.31 154.15 724.87 153.77 721.06 153.88C718.81 153.94 716.43 154.48 714.68 151.28C714.24 153.15 714.32 154.61 713.63 155.36C712.38 156.73 708.66 158.21 711.46 159.24C711.71 159.33 710.21 160.61 710.21 161.18C710.23 167.5 710.2 173.83 710.29 180.15C710.3 180.91 710.97 181.66 711.32 182.42C711.59 183 712.01 183.59 712.04 184.18C712.28 189.41 712.48 194.65 712.62 199.88C712.68 202.3 712.39 204.73 712.65 207.12C712.78 208.31 714.29 209.42 714.27 210.56C714.27 211.8 712.73 213.02 712.68 214.28C712.48 220.5 712.58 226.74 712.51 232.97C712.48 236.13 712.33 239.29 712.17 242.44C712.14 242.96 711.86 243.56 711.51 243.95C710.31 245.31 709.42 251.65 710.71 252.75C712.65 254.43 712.63 256.57 712.69 258.66C712.79 261.64 715.14 262.44 714.92 265.42C714.88 266.03 715.31 267.85 715 268.49C714.77 268.96 714.77 270.04 714.79 270.05C716.73 270.35 716.29 271.88 716.53 273.14C716.68 273.95 717.1 274.82 717.67 275.4C719.69 277.47 721.87 279.39 723.9 281.46C725.69 283.28 727.54 284.69 730.33 284.44C731.04 284.38 731.79 285.27 732.58 285.56C733.08 285.75 733.74 285.78 734.24 285.63C735.31 285.31 736.31 284.54 737.38 284.46C740.36 284.22 743.37 284.27 746.36 284.13C747.05 284.1 747.76 283.8 748.39 283.49C750.86 282.27 753.31 281 755.77 279.74C756.55 279.35 757.35 279 758.08 278.53C759.85 277.4 761.54 276.13 763.36 275.08C765.1 274.07 767.66 273.73 768.64 272.28C771.05 268.73 775.48 266.95 776.74 262.34C777.08 261.08 778.41 258.96 780.72 258.95C782.43 258.95 782.83 257.87 782.94 256.34C783.03 255.01 783.3 253.61 783.85 252.41C784.87 250.21 786.49 248.25 787.24 245.99C788.21 243.08 786.98 239.82 789.23 236.88C790.39 235.37 789.88 232.56 790.04 230.34C790.14 228.93 789.36 227.27 791.37 226.48C791.44 226.46 791.28 225.22 790.92 224.79C789.65 223.27 789.67 221.27 791.06 219.83C791.43 219.44 791.65 218.89 791.87 218.38C792.45 217.02 792.99 215.65 793.69 213.93C792.01 213.55 792.03 211.95 792.06 210.11C792.23 200.4 792.27 190.68 792.44 180.96C792.46 180.22 793.35 179.52 793.52 178.73C793.8 177.48 794.28 175.21 793.88 175.02C790.9 173.6 792.1 171.02 791.91 168.91C791.3 161.84 793.35 154.65 790.24 147.62C788.66 144.02 788.55 139.78 787.67 135.86C787.35 134.45 786.7 133.11 786.05 131.33C785.88 131.63 785.95 131.3 786.12 131.24C787.94 130.58 787.48 129.02 787.17 127.88C786.99 127.22 785.83 126.82 785.09 126.33C784.46 125.91 783.69 125.63 783.18 125.1C780.8 122.62 779.14 119.16 774.89 119.36C774.47 119.38 774.03 118.99 773.61 118.76C772.64 118.25 771.7 117.7 770.73 117.2C770.24 116.94 769.35 116.83 769.27 116.5C768.81 114.63 767.38 115.02 766.1 114.9C764.48 114.74 762.96 115.09 761.53 113.3C760.44 111.93 759.13 109.72 756.57 110.08C756.37 110.11 756.09 109.93 755.92 109.77C753.84 107.85 752.07 105.06 749.62 104.19C746.33 103.02 746.26 100.78 745.8 98.3C745.71 97.84 745.42 97.42 745.23 96.97C744.76 95.9 744 94.85 743.89 93.74C743.58 90.76 743.57 87.76 743.42 84.77C743.39 84.29 743.35 83.46 743.13 83.39C740.58 82.55 741.49 80.45 741.46 78.8C741.39 75.81 741.51 72.81 741.6 69.81C741.63 69 741.55 67.72 742 67.45C743.87 66.32 743.38 64.62 743.46 63.02C743.6 60.37 743.71 57.71 743.92 55.07C743.97 54.39 744.24 53.3 744.65 53.17C746.27 52.65 745.81 51.44 745.98 50.34C746.36 47.89 744.97 45.27 748.2 43.18C750.77 41.51 750.27 36.28 755.03 36.35C755.08 36.35 755.11 36.21 755.18 36.17C756.1 35.66 757.01 35.11 757.97 34.67C758.48 34.44 759.48 34.54 759.58 34.26C760.43 31.81 762.5 32.49 764.2 32.41C766.86 32.29 769.53 32.32 772.19 32.37C772.69 32.38 773.34 32.63 773.66 32.99C775.21 34.76 776.63 36.64 778.19 38.39C778.56 38.82 779.31 39.2 779.85 39.17C782.73 38.99 783.05 40.75 783.05 42.98C783.04 44 783.25 45.06 783.56 46.04C783.9 47.1 782.34 48.07 782.75 49.11C783.88 51.99 781.71 55.71 785.02 58.06C785.16 58.16 785.21 58.69 785.13 58.75C782.37 60.45 784.12 62.06 785.18 63.7C785.26 63.82 785.2 64.03 785.21 64.19C785.23 68.02 785.34 71.85 785.21 75.68C785.18 76.65 784.26 77.56 783.95 78.56C783.59 79.71 783.64 80.93 783.75 82.08C783.77 82.41 787.17 82.78 788.05 82.8C790.21 82.85 792.38 82.76 794.54 82.61C795.13 82.58 795.7 82.18 796.27 81.94ZM687.21 98.67C688.63 97.76 688.82 95.49 687.77 94.26C687.15 93.54 686.6 92.51 686.56 91.59C686.27 85.02 686.14 78.45 685.94 71.88C685.86 69.32 683.12 67.62 683.58 64.85C683.58 64.78 683.1 64.7 682.96 64.53C681.81 63.12 680.26 61.84 679.66 60.21C678.81 57.93 676.98 56.79 675.48 55.21C673.46 53.07 670.98 51.27 670.1 48.19C669.89 47.46 669 46.9 668.37 46.33C667.44 45.48 665.82 44.8 665.63 43.83C665.23 41.79 664.03 41.86 662.59 41.81C659.2 41.68 655.57 42.63 652.96 39.49C650.9 41.54 645.26 42.86 643.44 41.03C641.16 38.72 638.75 39.79 636.38 39.47C635.4 39.34 634.34 39.55 633.4 39.28C632.5 39.03 631.76 38.24 630.87 37.93C630.32 37.73 629.32 37.74 629.03 38.09C627.78 39.57 625.14 40.01 624.09 38.5C623.11 37.1 622.61 37.28 621.74 38.49C621.46 38.87 620.75 39.05 620.22 39.09C618.23 39.25 616.23 39.42 614.24 39.38C612.69 39.35 610.84 39.83 610 37.7C609.87 37.38 608.97 37.23 608.43 37.23C603.69 37.24 598.95 37.29 594.2 37.38C593.58 37.39 592.52 37.55 592.41 37.88C591.89 39.51 590.63 39.31 589.4 39.48C588.76 39.57 588.17 40.08 587.56 40.39C586.76 40.81 585.96 41.57 585.14 41.6C581.99 41.7 578.83 41.47 575.67 41.56C574.26 41.6 572.62 41.77 571.5 42.51C570.12 43.43 566 44.57 565.07 43.31C563.73 41.52 562.07 41.82 560.4 41.81C556.16 41.78 551.92 41.84 547.67 41.9C547.2 41.91 546.48 41.98 546.3 42.28C545.16 44.17 543.28 43.99 541.62 43.85C538.86 43.61 536.09 44.71 533.38 42.15C531.04 39.96 522.66 42.9 520.88 45.82C520.59 46.3 520.37 46.91 520.4 47.45C520.5 50.19 521.08 52.97 520.78 55.65C520.35 59.54 521.7 63.77 518.87 67.28C518.66 67.54 518.56 68.27 518.73 68.43C521.04 70.56 520.79 72.62 518.73 74.75C518.51 74.98 518.64 75.56 518.6 75.97C518.39 78.18 518.17 80.4 517.96 82.61C513.33 84.33 519.54 86.19 517.9 88C517.44 88.51 517.23 89.23 516.89 89.85C516.67 90.24 516.41 90.62 516.18 91C516.44 90.97 516.7 90.94 516.96 90.9C517.48 92.3 518.41 93.69 518.46 95.11C518.62 99.51 518.5 103.93 518.33 108.33C518.3 109.05 517.35 109.7 516.99 110.47C516.75 111 516.49 111.98 516.75 112.22C518.99 114.31 518.86 119.52 516.93 121.93C516.21 122.83 516.26 125.13 516.92 126.18C517.92 127.79 518.7 131.46 517.52 133.02C515.3 135.96 515.37 138.75 517.72 141.21C517.09 142.15 516.19 142.9 516.14 143.69C515.99 146.26 515.45 149.14 516.38 151.34C517.39 153.74 518.24 155.23 516.25 157.59C515.37 158.63 515.98 160.96 515.97 162.71C515.9 171.11 515.85 179.51 515.75 187.91C515.74 188.6 515.41 189.31 515.13 189.96C514.73 190.86 513.91 191.69 513.83 192.6C513.6 195.15 514.27 197.95 513.42 200.22C512.68 202.21 511.38 203.61 513.53 205.34C513.65 205.45 513.56 205.83 513.56 206.08C513.54 209.23 513.56 212.4 513.48 215.55C513.46 216.26 513.37 217.31 512.93 217.59C511.29 218.63 511.3 219.44 512.75 220.62C513.18 220.97 513.44 221.83 513.39 222.42C513.19 225.01 515.02 228.06 511.79 230.03C511.65 230.12 511.63 230.52 511.67 230.75C512.01 232.81 510.55 235.27 513.03 236.91C513.33 237.1 513.35 237.83 513.37 238.31C513.55 242.13 513.61 245.96 513.91 249.77C514.07 251.86 514.62 253.93 515.02 256.15C514.64 257.35 513.81 258.89 513.71 260.47C513.46 264.45 513.59 268.45 513.46 272.43C513.43 273.36 513.01 274.28 512.68 275.18C512.37 276.05 511.86 276.86 511.58 277.75C510.29 281.78 513.15 284.91 514.06 288.82C516.87 288.82 519.8 289.07 522.65 288.74C525.4 288.43 528.66 290.03 530.85 286.96C530.98 286.78 531.48 286.87 531.81 286.84C536.15 286.51 536.09 286.51 536.52 282.09C536.67 280.58 537.15 279.09 537.62 277.63C537.91 276.74 538.81 275.94 538.84 275.08C538.97 270.34 538.9 265.59 538.96 260.84C538.96 259.69 538.82 257.82 539.4 257.52C541.72 256.3 540.89 254.43 540.79 252.74C540.67 250.87 541.66 248.69 539.46 247.25C539.31 247.15 539.61 245.8 540.03 245.5C541.19 244.67 541.29 244 540.09 243.25C538.51 242.26 538.42 241.49 540.22 240.63C540.49 240.5 540.51 239.02 540.36 238.97C538.46 238.28 538.94 236.64 538.94 235.35C538.9 229.52 538.98 223.69 539.04 217.86C539.05 217.21 539.02 216.43 539.35 215.94C541.62 212.59 541.64 211.63 539.32 208.54C539.09 208.24 538.96 207.74 539.03 207.37C539.33 205.81 539.72 204.27 540.15 202.4C539.92 201.88 539.1 200.85 539.06 199.79C538.86 193.47 538.81 187.15 538.78 180.82C538.77 180.15 539.01 179.3 539.45 178.84C540.89 177.35 542.44 175.98 544.01 174.63C544.34 174.35 544.93 174.3 545.41 174.27C546.74 174.18 548.11 173.97 549.4 174.17C551.51 174.49 554.2 173.38 555.4 176.37C555.49 176.61 556.3 176.64 556.78 176.65C559.34 176.71 561.9 176.7 564.46 176.79C565.09 176.81 566.08 176.94 566.26 177.32C567.03 178.96 568.41 178.61 569.7 178.65C571.28 178.7 572.88 178.95 574.43 178.75C578.19 178.26 582.32 180.18 585.7 177.1C585.79 177.01 586.08 176.98 586.17 177.06C587.32 177.96 588.74 178.69 589.5 179.86C590.58 181.5 592.63 182.76 592.21 185.19C592.19 185.3 592.38 185.49 592.51 185.56C595.75 187.2 596.91 189.89 596.62 193.41C596.57 194.02 597.02 194.8 597.46 195.31C599.22 197.29 599.22 200 597.43 201.95C597.03 202.39 596.54 203.19 596.69 203.62C597.55 206.02 598.55 208.38 599.6 210.71C600.04 211.67 601.08 212.47 601.19 213.42C601.44 215.55 601.27 217.73 601.31 219.88C601.32 220.6 601.27 221.87 601.55 221.96C604.17 222.79 603.01 224.89 603.29 226.53C604.13 231.55 602.32 236.74 605.35 241.72C607.11 244.61 607.18 248.58 607.8 252.11C608.14 254.06 608 256.09 608.15 258.08C608.22 258.97 608.19 260.34 608.72 260.66C610.72 261.88 610.4 263.73 610.45 265.49C610.53 267.99 610.45 270.49 610.6 272.98C610.65 273.77 611.21 274.55 611.6 275.3C612.69 277.38 614.09 279.34 614.82 281.53C615.42 283.37 614.46 285.71 616.77 287.03C617.07 287.2 616.98 288.12 617 288.7C617.04 290.53 616.94 292.37 617.12 294.19C617.23 295.3 617.43 297.01 618.13 297.35C619.81 298.16 619.39 299.44 619.59 300.68C619.81 301.96 620.09 303.24 620.51 304.46C620.88 305.51 621.53 306.45 621.95 307.49C622.19 308.08 621.98 309.12 622.35 309.35C624.32 310.58 623.84 312.51 624.03 314.26C624.1 314.91 624.06 315.94 624.42 316.13C627.36 317.66 626.51 320.34 626.59 322.74C626.64 324.31 626.05 326.69 626.84 327.3C628.78 328.82 628.27 330.68 628.51 332.44C628.82 334.81 630.96 336.46 632.36 336.57C638.05 337.02 643.8 336.78 649.53 336.65C650.16 336.63 651.11 335.81 651.33 335.16C653.32 329.52 650.86 324.41 649.24 319.22C649.2 319.08 649.04 318.91 648.91 318.89C646.44 318.54 646.99 316.53 646.87 315C646.73 313.18 646.91 311.33 646.8 309.51C646.77 308.84 646.5 308.01 646.03 307.59C644.02 305.74 642.1 304 642.47 300.8C642.73 298.58 642.48 296.3 642.41 294.06C642.39 293.32 642.51 292.22 642.09 291.9C639.32 289.78 640.55 286.73 640.09 284.08C639.89 282.86 640.21 281.06 639.52 280.51C637.46 278.89 638.05 276.81 637.86 274.84C637.69 273.15 638.52 271.12 636.06 270.23C635.67 270.09 635.65 268.89 635.49 268.17C635.35 267.53 635.49 266.57 635.09 266.28C632.28 264.2 633.48 262.27 635.39 260.29C634.75 259.7 634.07 259.31 633.75 258.71C633.37 258.01 633.4 257.08 633.05 256.35C632.48 255.15 631.49 254.1 631.15 252.86C630.77 251.44 630.81 249.88 630.86 248.39C630.93 246.69 630.25 245.82 628.61 245.37C626.42 244.77 625.89 242.66 627.36 240.92C627.66 240.57 627.98 240.22 628.26 239.89C627.05 238.28 625.89 236.83 624.9 235.27C624.73 235.02 625.41 234.29 625.58 233.74C625.75 233.21 626.02 232.25 625.84 232.15C623.98 231.03 624.21 229.18 624.13 227.49C623.96 224.17 623.9 220.85 623.77 217.53C623.75 217.05 623.7 216.31 623.41 216.15C621.62 215.18 621.99 213.47 621.91 211.96C621.75 208.9 621.73 205.83 621.57 202.76C621.52 201.87 621.46 200.47 620.96 200.22C619.11 199.3 619.57 197.76 619.5 196.34C619.43 194.93 619.5 193.5 619.41 192.09C619.38 191.56 619.16 190.65 618.88 190.6C617 190.21 617.13 188.69 617.16 187.45C617.24 184.18 615.61 180.66 619.43 177.99C621.76 176.36 623.32 173.4 626.73 174.25C630.76 175.24 633.75 172.58 637.07 171.37C638.31 170.93 639.42 169.74 641.03 169.76C643.67 169.8 646.31 169.76 648.96 169.76C648.86 169.53 648.77 169.29 648.68 169.05C649.56 168.29 650.48 167.56 651.32 166.76C653.59 164.58 655.8 162.34 658.08 160.17C658.94 159.36 660.17 158.86 660.8 157.92C662.48 155.42 664.37 153.52 667.65 153.57C668.31 153.58 668.97 153.08 669.23 152.98C668.88 151.63 668.04 150.21 668.44 149.64C670.25 147.03 671.7 144.39 672.82 141.34C673.71 138.9 674.67 136.55 675.05 133.98C675.1 133.67 675.64 133.47 675.89 133.17C677.57 131.22 679.9 129.64 679.4 126.5C679.27 125.73 679.38 124.37 679.8 124.17C682.01 123.09 681.39 121.12 681.62 119.4C681.81 118.09 681.58 116.13 682.34 115.6C684.29 114.24 684.16 112.38 683.82 110.78C682.94 106.62 685.84 103.38 686.18 99.55C686.21 99.22 686.82 98.9 687.21 98.66V98.67ZM474.43 35.2C474.49 33.37 474.49 31.53 474.37 29.71C474.33 29.16 473.86 28.2 473.52 28.17C471.3 27.98 469.05 27.86 466.83 28.01C466.26 28.05 465.78 29.18 465.24 29.78C465.08 29.95 464.83 30.15 464.63 30.14C461.99 30.01 459.26 30.22 456.77 29.53C455.19 29.1 453.99 27.32 453.12 26.57C451.54 27.11 450.44 27.69 449.28 27.83C447.64 28.03 445.95 27.86 444.29 27.95C443.7 27.98 442.68 28.2 442.6 28.52C442.03 30.86 440 30.54 439.11 29.74C436.88 27.74 435.67 28.73 434.28 30.54C433.28 31.85 431.29 32.99 431.2 34.3C430.84 39.77 430.99 45.28 431.05 50.77C431.05 51.48 431.63 52.17 431.91 52.88C432.25 53.78 433.08 54.95 432.79 55.54C431.82 57.5 430.49 59.24 432.88 61.09C432.96 61.15 432.91 61.41 432.92 61.57C432.99 64.98 433.07 68.39 433.11 71.8C433.11 72.36 433.08 73.05 432.77 73.47C430.39 76.67 430.37 76.66 432.79 79.47C431.42 80.64 429.71 81.89 432.58 83.33C432.81 83.45 432.86 84.09 432.87 84.49C432.91 86.4 432.96 88.32 432.89 90.23C432.87 90.73 432.47 91.22 432.22 91.7C431.81 92.49 431.04 93.26 431.02 94.06C430.88 100.21 430.89 106.37 430.82 112.52C430.8 114.74 431.6 117.7 430.48 119.03C428.07 121.88 428.91 124.99 428.53 127.98C428.41 128.95 429.61 130.03 429.85 131.14C430.16 132.55 430.37 134.08 430.14 135.48C429.88 137 428.6 138.41 428.58 139.88C428.44 147.78 428.58 155.68 428.54 163.58C428.54 165.24 428.8 166.97 427.07 168.33C426.54 168.75 426.93 170.56 427.18 171.67C427.41 172.67 428.34 173.56 428.4 174.53C428.57 176.93 428.44 179.36 428.37 181.77C428.35 182.31 428.23 183.2 427.91 183.33C426.13 184.07 426.46 185.58 426.45 186.94C426.43 189.69 426.56 192.44 426.49 195.19C426.43 197.68 426.78 200.41 425.86 202.58C425 204.63 424.2 205.96 426.04 207.81C426.99 208.78 428 210.22 428.01 211.46C428.01 212.74 426.86 214.04 426.22 215.33C426.14 215.48 426.14 215.65 426.11 215.82C425.77 217.8 426.88 220.23 424.8 220.93C425.49 222.47 426.01 223.67 426.57 224.85C426.86 225.49 427.11 226.21 427.58 226.69C428.82 227.95 428.98 230.69 427.58 231.63C425.78 232.83 426.37 234.33 427.15 235.47C428.93 238.06 429.02 242.95 427.31 245.51C426.75 246.36 426.65 247.73 426.84 248.77C426.91 249.2 428.29 249.65 429.08 249.67C436.07 249.81 443.07 249.89 450.06 249.91C451.11 249.91 452.82 249.86 453.1 249.28C454.25 246.93 456.18 247.75 457.87 247.73C461.83 247.66 465.79 247.7 470.12 247.7C470.12 242.06 470.12 236.99 470.13 231.93C470.13 231.27 470.02 230.24 470.37 230.02C472.33 228.78 471.97 226.86 471.92 225.11C471.89 224.22 471.24 222.59 470.91 222.59C469.13 222.64 466.9 222.57 465.74 223.59C464.87 224.36 464.26 224.83 463.2 224.83C459.81 224.84 456.42 224.83 453.03 224.8C452.63 224.8 451.98 224.77 451.87 224.55C450.88 222.59 449.37 220.63 449.2 218.57C448.85 214.45 449.14 210.26 449.37 206.12C449.47 204.46 448.67 202.32 451.03 201.35C451.16 201.3 451.11 200.18 450.91 200.08C448.9 199.18 449.29 197.34 449.2 195.76C449.08 193.61 449.24 191.44 449.14 189.29C449.05 187.43 448.9 185.64 451.53 184.99C449.47 183.12 448.48 179.02 449.95 177.55C451.72 175.76 451.44 173.8 451.44 171.79C451.43 162.82 451.33 153.85 451.37 144.88C451.38 143.54 451.58 141.51 452.42 141C454.8 139.55 457.51 138.53 460.2 137.74C461.91 137.23 463.83 137.52 465.64 137.29C466.27 137.21 467.14 136.78 467.38 136.26C468.6 133.59 470.68 131.14 469.96 127.85C469.88 127.47 469.92 126.81 470.15 126.66C473.15 124.75 471.48 121.74 471.9 119.25C471.99 118.71 471.63 117.96 471.25 117.49C469.98 115.9 468.73 114.19 466.24 114.69C465.99 114.75 465.62 114.5 465.38 114.3C462.79 112.21 460.69 112.23 458.2 114.39C457.37 115.11 456.57 115.88 455.65 116.46C455.31 116.67 454.51 116.54 454.18 116.26C452.91 115.21 451.82 113.96 450.54 112.93C448.81 111.52 448.78 109.29 450.48 107.91C450.95 107.53 451.34 106.75 451.35 106.15C451.41 99.41 451.45 92.66 451.34 85.92C451.32 84.39 450.69 82.88 450.39 81.59C450.74 80.24 451.35 78.97 451.38 77.69C451.5 70.61 451.54 63.53 451.49 56.46C451.48 54.51 451.99 53.29 454.06 52.96C454.67 52.87 455.59 52.58 455.74 52.15C456.32 50.49 457.62 50.87 458.83 50.74C460.12 50.59 462.23 50.6 462.51 49.93C463.41 47.78 465.06 48.51 466.48 48.29C467.6 48.11 469.07 48.4 469.8 47.78C471.5 46.34 472.85 44.48 474.36 42.77C471.52 40.76 471.5 39.69 473.85 36.99C474.24 36.55 474.42 35.81 474.44 35.2H474.43ZM397.23 85.47C397.7 84.93 397.92 84.17 398.26 83.52C397.59 83.3 396.93 82.9 396.26 82.89C393.19 82.81 390.1 82.93 387.03 82.77C386.11 82.72 385.23 82.03 384.34 81.6C383.91 81.4 383.53 80.97 383.09 80.92C380.71 80.68 378.31 80.44 375.92 80.38C373.92 80.34 371.76 81.17 370.41 78.8C370.24 78.51 369.48 78.42 369.02 78.47C367.04 78.65 364.64 77.28 363.31 80.01C363.2 80.23 362.53 80.28 362.13 80.26C360.18 80.15 357.91 81.16 356.63 78.63C356.49 78.36 355.72 78.33 355.24 78.33C353.49 78.34 351.74 78.34 350 78.49C349.34 78.54 348.69 78.94 348.06 79.24C347.3 79.61 346.59 80.38 345.83 80.41C342.44 80.53 339.05 80.46 335.65 80.44C331.93 80.44 328.2 80.44 324.48 80.34C322.8 80.3 322.32 80.86 322.53 82.58C323 86.34 323.56 90.19 320.65 93.54C323.78 95.36 322.37 98.34 322.58 100.92C322.71 102.64 322.58 104.41 322.94 106.07C323.07 106.72 324.17 107.58 324.87 107.62C328.11 107.81 331.37 107.79 334.61 107.74C336.17 107.72 338.01 108.27 338.87 106.12C338.99 105.82 339.9 105.72 340.45 105.71C343.5 105.68 345.72 107.89 345.72 111.28C345.72 119.1 345.58 126.91 345.44 134.72C345.42 135.5 345.01 136.29 344.75 137.06C344.4 138.1 343.7 139.13 343.69 140.17C343.61 148.83 343.63 157.5 343.67 166.16C343.68 167.62 342.95 169.38 345.04 170.24C345.24 170.32 345.32 171.58 345.08 171.74C343.51 172.81 343.01 173.66 345.14 174.64C345.41 174.77 345.45 175.55 345.47 176.03C345.55 177.94 345.6 179.85 345.62 181.77C345.76 190.59 345.87 199.42 346.02 208.24C346.03 208.97 345.99 210.08 346.41 210.36C348.86 211.99 347.88 214.42 347.85 216.49C347.83 217.49 346.2 218.48 346.21 219.47C346.23 220.55 347.83 221.65 347.78 222.7C347.68 225.14 349.09 228.04 346.18 229.93C345.89 230.12 346.06 231.03 346.05 231.61C346.03 232.69 346.26 233.83 345.99 234.84C345.43 236.93 345.43 238.7 347.79 239.65C346.13 241.33 345.01 246.2 346.22 247.23C348.82 249.41 348.34 251.3 346.14 253.22C348.47 256.05 348.45 256.35 346.26 259.62C346.05 259.93 346.09 260.85 346.26 260.93C349.05 262.15 348.02 263.18 346.25 264.42C345.86 264.69 345.92 265.67 345.88 266.33C345.77 267.91 345.81 269.5 345.63 271.07C345.55 271.7 345.06 272.3 344.75 272.9C344.38 273.62 343.7 274.33 343.68 275.05C343.55 279.55 343.68 284.05 343.5 288.54C343.41 290.65 344.35 291.14 346.14 291.11C348.96 291.07 351.8 291 354.62 291.13C355.95 291.2 356.9 291.29 357.66 289.8C358.38 288.41 368.03 288.37 368.92 289.71C369.93 291.26 371.64 291.14 372.27 290.34C372.81 289.67 372.74 288.54 372.37 286.53C371.05 279.28 370.37 276.17 371.71 275.11C371.99 274.89 372.04 275.01 372.64 274.65C373.96 273.86 374.7 272.64 375.13 271.68C372.58 269.04 372.54 263.32 375.23 260.21C373.09 258.34 372.6 256.38 375.04 254.28C375.36 253.99 375.22 253.18 375.33 252.62C375.76 250.21 373.91 248.28 373.71 246.23C373.22 241.2 373.16 236.04 373.79 231.04C374.03 229.09 374.22 227.71 373.7 225.67C372.74 221.98 372.96 217.95 372.94 214.06C372.92 210.27 373.36 206.48 373.35 202.69C373.35 194.65 373.09 186.61 373.11 178.57C373.13 169.17 373.33 159.78 373.47 150.38C373.49 149.47 373.33 148.02 373.8 147.75C376.42 146.21 375.28 143.81 375.36 141.76C375.41 140.58 375.28 139.13 374.64 138.23C373.08 136.03 373.18 132.96 374.7 130.72C375.35 129.77 375.48 127.22 374.97 126.94C372.76 125.69 373.45 123.66 372.99 121.93C372.78 121.14 372.01 120.48 371.83 119.68C371.48 118.17 370.89 115.4 371.25 115.26C373.76 114.25 372.92 112.29 372.94 110.63C372.96 108.78 373.66 107.88 375.59 107.88C376.91 107.88 378.86 108.08 379.41 107.35C380.79 105.53 382.56 105.85 384.28 105.57C385.01 105.45 386.11 105.36 386.36 104.9C387.54 102.66 389.6 103.37 391.39 103.17C392.17 103.08 392.96 103.16 394.1 103.16C393.34 100.41 395.5 97.44 392.07 95.8C391.92 95.74 391.87 95.34 391.89 95.1C392.06 93.14 391.2 91 393.39 89.42C394.86 88.37 396.02 86.86 397.23 85.47ZM305.72 25.39C306.69 24.32 306.31 21.83 306.14 20.02C306.1 19.6 304.47 19.21 303.53 19.02C301.6 18.65 299.39 18.88 297.78 17.98C296.46 17.24 295.88 16.07 294.87 18.09C294.7 18.42 294.04 18.66 293.6 18.67C291.6 18.74 289.6 18.8 287.61 18.68C287.01 18.64 286.47 17.95 285.87 17.63C285.15 17.24 284.4 16.63 283.66 16.62C281.16 16.56 278.66 16.68 276.17 16.83C275.3 16.89 274.44 17.24 273.58 17.47C271.81 17.96 270.06 18.7 268.25 18.89C266.28 19.09 264.24 18.56 262.28 18.77C260.86 18.92 259.55 19.87 258.13 20.22C257.5 20.37 256.49 20.17 256.07 19.73C254.97 18.58 252.18 17.97 251.86 19.1C251.22 21.39 249.57 20.73 248.08 20.9C245.15 21.24 242.14 21.37 239.32 22.18C236.72 22.92 234.35 24.71 231.98 21.85C231.72 21.54 231.05 21.43 230.59 21.47C227.99 21.69 224.93 19.18 222.89 22.97C222.38 23.92 215.43 22.84 214.42 22.11C213.99 21.8 212.74 21.77 212.69 21.91C212.02 23.76 210.41 23.44 209.09 23.43C201.44 23.37 193.79 23.24 186.15 23.06C185.61 23.06 184.99 22.56 184.56 22.14C183.02 20.61 176.74 20.3 175.55 21.96C174.54 23.38 174.19 23.05 172.95 22.14C171.92 21.38 168.93 21.31 168.88 21.5C168.16 24.1 166.11 23.28 164.56 23.31C161.52 23.36 161.33 23.43 161.39 26.48C161.41 27.23 161.66 27.98 161.59 28.71C161.36 31.23 162.86 34.19 159.62 35.84C161.41 37.61 162.46 45.56 161.3 47.75C161.16 48.01 160.86 48.23 160.59 48.38C159.24 49.12 159.41 49.66 160.59 50.54C161.1 50.92 161.42 52.61 161.27 52.68C159.27 53.76 159.21 54.73 161.16 55.91C161.4 56.06 161.39 56.69 161.41 57.09C161.58 60.5 161.86 63.91 161.86 67.31C161.84 75.04 161.47 82.77 161.7 90.48C161.8 93.53 160.61 97.01 163.32 99.7C163.49 99.87 163.38 100.59 163.15 100.85C160.52 103.98 162.19 107.77 161.57 111.2C161.51 111.53 162 112.22 162.34 112.3C163.91 112.69 163.84 113.84 163.84 115.03C163.84 120.45 163.83 125.86 163.94 131.28C163.97 132.84 163.65 134.51 165.44 135.72C166.63 136.53 165.62 141.3 164.86 142.65C164.31 143.65 164.23 145.99 164.78 146.31C166.24 147.17 166.14 148.27 166.14 149.47C166.14 155.54 166.03 161.62 166.06 167.7C166.11 177.99 166.2 188.29 166.41 198.59C166.43 199.73 167.52 200.82 167.71 202C167.93 203.32 167.79 204.73 167.59 206.06C167.51 206.59 166.47 207.01 166.46 207.49C166.4 210.44 166.46 213.4 166.58 216.35C166.6 216.85 167.22 217.3 167.33 217.82C167.65 219.33 167.89 220.85 168.1 222.38C168.17 222.85 167.98 223.36 168.03 223.84C168.32 226.49 169.32 229.15 167.17 231.63C165.75 233.26 166.82 239.2 167.61 241.19C168.34 243.02 168.58 245.99 167.55 247.34C166.41 248.85 166.49 249.99 166.76 251.33C166.93 252.11 167.87 252.69 168.28 253.46C170.23 257.17 172.64 257.65 175.71 254.93C176.03 254.65 176.69 254.5 177.1 254.61C178.42 255 179.71 255.53 181.52 256.2C181.71 252.73 184.38 252.16 187.48 252.21C187.64 252.21 187.94 252.19 187.95 252.13C188.07 251.53 188.35 250.87 188.19 250.35C187.91 249.44 186.97 248.62 186.96 247.76C186.89 236.27 186.9 224.78 187 213.29C187 212.42 187.93 211.6 188.21 210.7C188.38 210.13 188.36 209.11 188.02 208.85C186.78 207.94 186.86 207.3 187.96 206.33C189.37 205.06 189.19 203.18 187.8 201.74C187.4 201.32 187.11 200.61 187.1 200.04C187.03 191.8 186.88 183.55 187.04 175.31C187.1 172.28 186.12 168.8 189.17 166.44C190.99 165.04 191.98 162.56 195.01 162.74C199.16 162.98 203.33 162.83 207.48 162.68C208.38 162.65 209.39 162.09 210.12 161.49C211.35 160.48 213.42 160.59 214.59 161.91C214.88 162.24 215.35 162.62 215.74 162.63C219.32 162.74 222.89 162.81 226.47 162.76C227.04 162.75 227.77 162.21 228.15 161.71C229.35 160.11 234.22 159.98 235.34 161.71C236.23 163.07 236.71 162.97 237.69 161.78C239.08 160.1 241.04 160.32 242.6 161.9C242.91 162.21 243.95 162.1 244.49 161.84C246.69 160.79 248.76 159.43 251.02 158.55C252.19 158.1 253.66 158.43 254.99 158.41C257.15 158.37 259.49 159.06 260.98 156.63C261.12 156.39 262.21 156.36 262.33 156.55C263.52 158.49 264.49 158.29 265.72 156.54C266.01 156.12 267.13 156.28 267.87 156.21C269.86 156 272.55 156.56 273.69 155.48C276.06 153.24 278.63 154.01 281.14 153.84C282.07 153.77 283.04 154.61 284.02 154.97C284.55 155.16 285.19 155.39 285.69 155.26C287.04 154.91 288.31 154.11 289.66 153.98C291.68 153.78 292.61 153.11 292.54 150.92C292.49 149.21 291.73 146.93 294.57 146.34C294.77 146.29 294.88 145.45 294.89 144.97C294.97 142.06 295.05 139.15 295.04 136.24C295.03 133.19 294.67 132.91 291.55 132.98C285.82 133.12 280.09 133.21 274.36 133.45C273.47 133.48 272.63 134.33 271.71 134.57C271.08 134.74 270.13 134.78 269.68 134.43C267.63 132.79 262.33 132.94 260.39 134.64C259.98 135.01 258.65 134.97 258.22 134.58C256.51 133.08 255.21 133.02 253.45 134.52C253.06 134.85 251.91 135.02 251.84 134.89C250.4 132.02 249.17 134.19 248.15 135C247.06 134.43 245.48 133.46 245.4 133.57C243.79 135.85 242.48 134.91 240.95 133.47C240.51 133.06 239.51 133.19 238.76 133.17C236.68 133.13 234.58 133.32 232.52 133.1C227.39 132.53 222.85 134.95 218.01 135.81C217.54 135.89 217.14 136.47 216.75 136.86C215.48 138.15 213.4 138.05 212.35 136.63C211.19 135.06 206.65 135.02 205.13 136.29C204.16 137.11 202.8 137.69 201.54 137.9C198.7 138.36 196.27 137.5 194.32 135.2C192.57 133.12 190.88 131.27 191.31 128.12C191.55 126.35 190.74 124.44 190.31 122.1C191.2 121.47 192.49 120.41 189.84 119.04C189.29 118.76 189.13 117.4 189.07 116.52C188.95 114.78 189.02 113.02 188.99 111.27C188.96 109.44 188.83 107.58 191.22 107.19C191.2 106.83 191.26 106.59 191.17 106.52C189.9 105.38 188.52 104.53 190.91 102.82C191.7 102.25 192.37 99.85 190.28 98.63C189.94 98.42 189.98 97.22 190.14 96.56C190.39 95.56 191.53 94.17 191.21 93.73C189.22 90.98 190.08 88.68 191.16 85.81C192.07 83.39 191.59 80.37 191.4 77.64C191.29 76.21 190.34 74.86 190.03 73.41C189.79 72.27 189.5 70.29 190.01 69.98C191.95 68.81 191.42 67.24 191.41 65.62C191.39 62.79 191.16 59.9 191.66 57.15C192.04 55.08 193.4 53.17 194.4 51.23C194.53 50.98 195.15 50.91 195.55 50.9C198.62 50.8 201.69 50.71 204.76 50.65C207.84 50.6 210.91 50.66 213.98 50.49C214.87 50.44 215.89 49.93 216.55 49.31C217.66 48.28 218.36 48.27 219.42 49.41C221.28 51.39 224.04 51.19 226.25 49.47C227.14 48.77 228.51 48.48 229.69 48.42C232.82 48.26 235.97 48.35 239.11 48.28C239.85 48.27 240.99 48.28 241.24 47.86C242.83 45.23 245.41 46.45 247.54 46.09C248.02 46.01 248.79 46.44 249.12 46.87C250.34 48.47 252.14 48.74 253.5 47.24C254.48 46.15 255.15 46.11 256.06 47.29C256.34 47.66 257.49 47.93 257.57 47.81C258.86 45.79 260.96 46.46 262.76 46.1C264.5 45.74 266.55 46.52 267.87 44.32C268.18 43.81 270.5 43.95 271.48 44.51C273.02 45.4 274.2 46.91 275.64 48.26C277.62 45.41 280.45 46.01 283.14 45.98C284.61 45.96 286.83 46.27 287.41 45.49C289.03 43.26 291.03 43.98 292.99 43.96C295.89 43.92 298.78 43.95 302.56 43.95C301.7 42.58 301.38 41.77 300.81 41.21C299.49 39.92 299.1 37.63 300.24 36.87C302.76 35.2 304.4 33.13 304.19 29.83C304.09 28.27 304.4 26.85 305.73 25.39H305.72ZM121.45 313.88C127.33 313.65 127.35 313.67 127.07 307.77C127.02 306.84 126.9 305.68 126.34 305.05C124.75 303.27 123.38 301.56 122.22 299.33C121 296.97 121.17 295.77 122.44 293.98C122.93 293.29 123.09 292.36 123.45 291.57C123.82 290.75 124.54 289.97 124.58 289.14C124.7 286.82 124.56 284.48 124.48 282.15C124.45 281.5 124.44 280.42 124.12 280.28C121.85 279.34 122.57 277.4 122.51 275.79C122.37 272.46 122.39 269.12 122.28 265.79C122.26 265.19 122.03 264.14 121.75 264.08C119.65 263.68 120.19 262 119.98 260.72C119.81 259.65 120.2 258.04 119.62 257.58C117.57 255.98 118.13 253.83 118 251.88C117.79 248.82 117.88 245.74 117.8 242.68C117.8 242.12 117.7 241.16 117.44 241.08C114.61 240.24 115.71 237.9 115.45 236.1C115.26 234.79 115.61 232.79 114.9 232.3C112.32 230.53 113.04 227.78 113.78 226.26C114.79 224.18 114.18 223.35 113.48 221.47C112.46 218.71 110.77 216.58 109.62 214.72C110.16 213.07 110.86 211.86 110.89 210.64C110.98 206.82 110.82 202.98 110.73 199.15C110.72 198.75 110.72 198.12 110.48 197.97C108.35 196.63 109.28 195.14 110.49 193.52C108.1 193.06 108.31 191.46 108.37 189.82C108.41 188.6 108.67 186.7 108.03 186.27C106.15 184.98 106.74 183.24 106.42 181.61C105.6 177.41 108.11 172.63 104.19 168.99C104.65 165.04 102.59 160.75 105.31 157.7C104.79 155.57 104.13 153.9 104.03 152.2C103.8 148.22 103.88 144.22 103.75 140.22C103.73 139.47 103.39 138.71 103.11 137.99C102.72 137.01 101.94 136.09 101.89 135.1C101.69 131.96 101.73 128.8 101.75 125.64C101.75 125.11 101.92 124.24 102.25 124.11C104.24 123.32 104.58 122.56 102.49 121.44C102.21 121.29 102.13 120.74 101.99 120.36C101.45 118.81 100.92 117.25 100.24 115.29C101.82 114.49 101.73 112.65 100.99 110.62C100.48 109.24 99.76 107.84 99.65 106.41C99.44 103.6 99.64 100.76 99.57 97.93C99.54 96.87 99.57 95.24 98.96 94.87C97.17 93.77 97.98 92.03 97.4 90.74C95.95 87.56 99.65 84.66 97.65 81.55C97.55 81.39 98.1 80.78 98.39 80.4C98.7 80 99.06 79.63 99.43 79.2C96.39 77.48 94.85 75.27 94.9 71.87C95.01 65.47 94.89 59.07 94.81 52.67C94.81 52.09 94.55 51.34 94.13 50.97C93.34 50.26 92.35 49.77 91.44 49.19C91.27 48.95 91.1 48.72 90.92 48.49C90.69 49.02 90.49 49.98 90.2 50.01C88.69 50.15 86.07 50.52 85.83 49.96C85.02 48.08 84.01 48.57 82.65 48.75C81.36 48.93 80.01 48.69 78.68 48.7C74.62 48.72 70.56 48.77 66.5 48.84C66.19 48.84 65.69 48.92 65.59 49.13C64.34 51.56 62.09 50.89 60.12 50.88C57.8 50.86 56.6 52.57 55.69 54.08C54.94 55.33 55.92 57.47 53.85 58.29C54.04 58.76 54.11 59.35 54.44 59.68C55.58 60.82 55.95 65.06 54.94 66.3C52.82 68.9 52.86 70.1 54.88 72.06C54.37 73.4 53.58 74.59 53.51 75.81C53.37 78.22 53.11 80.17 50.29 80.97C48.69 81.42 48.43 83.78 49.85 84.72C51.66 85.91 51.26 87.75 50.44 88.59C48.79 90.29 49.13 92.21 48.82 94.12C48.68 95.02 48.21 95.88 47.82 96.73C47.45 97.57 46.68 98.35 46.63 99.18C46.46 102.25 46.54 105.33 46.46 108.4C46.44 109.01 46.25 110.05 45.92 110.15C43.95 110.74 44.41 112.49 43.94 113.8C43.55 114.9 42.85 115.9 42.57 117.01C42.36 117.81 42.27 119.09 42.73 119.52C43.72 120.45 44.32 120.96 42.83 121.94C42.53 122.14 42.57 123.15 42.74 123.69C43.15 124.95 44.15 126.14 44.16 127.37C44.24 132.75 44.09 138.14 43.93 143.53C43.9 144.55 43.53 145.58 43.22 146.58C42.88 147.62 42.27 148.58 42.05 149.63C41.34 153 42.96 156.66 40.05 159.83C38.43 161.6 37.87 164.32 36.77 166.58C36.3 167.55 35.21 168.44 35.21 169.36C35.22 170.76 35.95 172.15 36.17 172.9C35.73 174.87 35.27 176.4 35.06 177.95C34.89 179.26 35.02 180.61 34.97 181.94C34.9 183.74 35.69 185.84 33.14 186.68C35.56 189.45 35.54 192.71 33.56 195.8C32.89 196.84 32.15 198.36 34.01 199.41C35.14 200.05 35.54 203.41 34.48 203.98C32.23 205.19 32.72 207.08 32.7 208.95C32.67 213.53 32.61 218.1 32.48 222.68C32.46 223.34 31.9 223.96 31.75 224.64C31.33 226.49 26.36 227.17 30.32 230.16C30.46 230.26 30.47 230.65 30.42 230.88C29.45 235.38 32.05 240.37 28.56 244.55C28.31 244.84 28.29 245.33 28.2 245.73C27.75 247.67 27.31 249.61 26.87 251.55C26.82 252.23 27.8 253.05 27.77 253.83C27.61 258.96 29.66 264.33 26.31 269.16C26.1 269.46 26.16 269.97 26.15 270.38C26.02 275.2 25.91 280.02 25.74 284.84C25.71 285.42 25.4 286.41 25.06 286.48C23.02 286.92 23.36 288.48 23.34 289.83C23.32 291.91 23.46 293.99 23.4 296.07C23.37 296.81 22.99 297.56 22.69 298.26C22.22 299.34 21.27 300.38 21.24 301.45C21.12 305.92 21.28 310.4 21.3 314.88C21.31 318.4 21.36 321.86 17.22 323.58C16.61 323.84 16.57 325.8 16.59 326.97C16.59 327.31 17.64 327.77 18.27 327.96C19.71 328.38 21.19 328.67 22.25 328.92C24.28 328.5 26.11 327.92 27.96 327.81C31.11 327.62 34.28 327.64 37.44 327.74C39.16 327.79 39.61 327.07 39.56 325.52C39.54 324.77 39.7 323.74 40.2 323.32C42.18 321.62 42.06 320.94 40.38 318.7C39.69 317.77 39.6 315.08 40.13 314.77C42.96 313.17 41.42 309.59 43.74 307.75C44.81 306.9 45.06 305.01 45.78 303.34C45.51 302.89 44.62 302.01 44.48 301.02C44.17 298.81 43.98 296.52 44.24 294.32C44.47 292.33 43.13 289.68 46.12 288.48C46.36 288.39 46.37 287.57 46.37 287.08C46.4 283.17 46.33 279.26 46.48 275.35C46.52 274.19 47.15 273.05 47.51 271.9C47.82 271.87 48.14 271.84 48.46 271.82C46.92 270.42 45.71 269.37 48.31 267.74C50.74 266.21 51.09 263.39 50.95 260.54C50.86 258.66 50.67 256.2 51.7 255C53.23 253.2 53.18 251.44 53.25 249.5C53.34 246.58 53.38 243.67 53.49 240.76C53.51 240.11 53.51 239.35 53.84 238.85C55.14 236.85 56.54 234.91 57.95 232.98C59.54 230.8 61.04 228.6 64.41 229.24C66.18 229.57 68.06 229.24 69.89 229.29C70.52 229.31 71.36 229.36 71.72 229.75C73.48 231.69 74.7 234.95 78.12 231.92C78.17 231.88 78.29 231.9 78.37 231.89C80.52 231.71 82.67 231.42 84.82 231.39C87.4 231.35 90.1 231.33 90.67 234.83C90.72 235.13 90.95 235.48 91.2 235.63C93.52 237.05 91.51 240.95 94.75 241.85C94.82 241.87 94.78 242.32 94.78 242.57C94.8 247.04 94.9 251.52 94.8 256C94.76 257.47 94.18 258.92 93.85 260.38C93.85 261.12 94.76 261.97 94.78 262.84C94.88 267.16 94.54 271.5 94.74 275.81C94.9 279.1 93.75 282.74 96.55 285.24C96.02 286.34 95.14 287.28 95.2 288.16C95.72 295 93.49 302.03 96.77 308.74C97.54 310.3 97.03 312.5 97.01 314.41C96.99 317.66 96.71 320.98 100.57 322.49C101.7 321.59 102.77 320.37 104.12 319.74C105.6 319.04 107.34 318.9 108.97 318.52C109.45 318.4 110.28 318.44 110.37 318.18C111.4 315.45 113.78 316.56 115.65 316.23C116.28 316.12 117.39 316.08 117.46 315.81C118.02 313.43 119.9 313.94 121.45 313.88Z" fill="black"/>
<path d="M795.41 80.3999C795.69 80.9199 795.98 81.4299 796.27 81.9399C795.7 82.1799 795.13 82.5799 794.54 82.6099C792.38 82.7599 790.21 82.8499 788.05 82.7999C787.17 82.7799 783.77 82.4099 783.75 82.0799C783.64 80.9299 783.59 79.7099 783.95 78.5599C784.26 77.5599 785.18 76.6499 785.21 75.6799C785.34 71.8499 785.23 68.0199 785.21 64.1899C785.2 64.0299 785.26 63.8199 785.18 63.6999C784.12 62.0599 782.37 60.4499 785.13 58.7499C785.21 58.6898 785.16 58.1599 785.02 58.0599C781.71 55.7099 783.88 51.9899 782.75 49.1099C782.34 48.0699 783.9 47.0999 783.56 46.0399C783.25 45.0599 783.04 43.9999 783.05 42.9799C783.05 40.7499 782.73 38.9899 779.85 39.1699C779.31 39.1999 778.56 38.8199 778.19 38.3899C776.63 36.6399 775.21 34.7599 773.66 32.9899C773.34 32.6299 772.69 32.3799 772.19 32.3699C769.53 32.3199 766.86 32.2899 764.2 32.4099C762.5 32.4899 760.43 31.8099 759.58 34.2599C759.48 34.5399 758.48 34.4399 757.97 34.6699C757.01 35.1099 756.1 35.6599 755.18 36.1699C755.11 36.2099 755.08 36.3499 755.03 36.3499C750.27 36.2799 750.77 41.5099 748.2 43.1799C744.97 45.2699 746.36 47.8899 745.98 50.3399C745.81 51.4398 746.27 52.6498 744.65 53.1698C744.24 53.2999 743.97 54.3899 743.92 55.0699C743.71 57.7099 743.6 60.3699 743.46 63.0199C743.38 64.6199 743.87 66.3198 742 67.4498C741.55 67.7198 741.63 68.9998 741.6 69.8098C741.51 72.8098 741.39 75.8099 741.46 78.7999C741.49 80.4499 740.58 82.5499 743.13 83.3899C743.35 83.4599 743.39 84.2898 743.42 84.7699C743.57 87.7598 743.58 90.7598 743.89 93.7399C744 94.8499 744.76 95.8999 745.23 96.9699C745.42 97.4199 745.71 97.8399 745.8 98.2999C746.26 100.78 746.33 103.02 749.62 104.19C752.07 105.06 753.84 107.85 755.92 109.77C756.09 109.93 756.37 110.11 756.57 110.08C759.13 109.72 760.44 111.93 761.53 113.3C762.96 115.09 764.48 114.74 766.1 114.9C767.38 115.02 768.81 114.63 769.27 116.5C769.35 116.83 770.24 116.94 770.73 117.2C771.7 117.7 772.64 118.25 773.61 118.76C774.03 118.99 774.47 119.38 774.89 119.36C779.14 119.16 780.8 122.62 783.18 125.1C783.69 125.63 784.46 125.91 785.09 126.33C785.83 126.82 786.99 127.22 787.17 127.88C787.48 129.02 787.94 130.58 786.12 131.24C785.95 131.3 785.88 131.63 786.05 131.33C786.7 133.11 787.35 134.45 787.67 135.86C788.55 139.78 788.66 144.02 790.24 147.62C793.35 154.65 791.3 161.84 791.91 168.91C792.1 171.02 790.9 173.6 793.88 175.02C794.28 175.21 793.8 177.48 793.52 178.73C793.35 179.52 792.46 180.22 792.44 180.96C792.27 190.68 792.23 200.4 792.06 210.11C792.03 211.95 792.01 213.55 793.69 213.93C792.99 215.65 792.45 217.02 791.87 218.38C791.65 218.89 791.43 219.44 791.06 219.83C789.67 221.27 789.65 223.27 790.92 224.79C791.28 225.22 791.44 226.46 791.37 226.48C789.36 227.27 790.14 228.93 790.04 230.34C789.88 232.56 790.39 235.37 789.23 236.88C786.98 239.82 788.21 243.08 787.24 245.99C786.49 248.25 784.87 250.21 783.85 252.41C783.3 253.61 783.03 255.01 782.94 256.34C782.83 257.87 782.43 258.95 780.72 258.95C778.41 258.95 777.08 261.08 776.74 262.34C775.48 266.95 771.05 268.73 768.64 272.28C767.66 273.73 765.1 274.07 763.36 275.08C761.54 276.13 759.85 277.4 758.08 278.53C757.35 279 756.55 279.35 755.77 279.74C753.31 281 750.86 282.27 748.39 283.49C747.76 283.8 747.05 284.1 746.36 284.13C743.37 284.27 740.36 284.22 737.38 284.46C736.31 284.54 735.31 285.31 734.24 285.63C733.74 285.78 733.08 285.75 732.58 285.56C731.79 285.27 731.04 284.38 730.33 284.44C727.54 284.69 725.69 283.28 723.9 281.46C721.87 279.39 719.69 277.47 717.67 275.4C717.1 274.82 716.68 273.95 716.53 273.14C716.29 271.88 716.73 270.35 714.79 270.05C714.77 270.04 714.77 268.96 715 268.49C715.31 267.85 714.88 266.03 714.92 265.42C715.14 262.44 712.79 261.64 712.69 258.66C712.63 256.57 712.65 254.43 710.71 252.75C709.42 251.65 710.31 245.31 711.51 243.95C711.86 243.56 712.14 242.96 712.17 242.44C712.33 239.29 712.48 236.13 712.51 232.97C712.58 226.74 712.48 220.5 712.68 214.28C712.73 213.02 714.26 211.8 714.27 210.56C714.29 209.42 712.78 208.31 712.65 207.12C712.39 204.73 712.68 202.3 712.62 199.88C712.48 194.65 712.28 189.41 712.04 184.18C712.01 183.59 711.59 183 711.32 182.42C710.97 181.66 710.3 180.91 710.29 180.15C710.2 173.83 710.23 167.5 710.21 161.18C710.21 160.61 711.71 159.33 711.46 159.24C708.66 158.21 712.38 156.73 713.63 155.36C714.32 154.61 714.24 153.15 714.68 151.28C716.43 154.48 718.81 153.94 721.06 153.88C724.87 153.77 725.31 154.15 725.34 157.84C725.41 166.59 725.37 175.33 725.54 184.07C725.57 185.57 726.45 187.05 726.86 188.56C726.99 189.04 726.95 189.62 726.8 190.09C726.46 191.18 725.68 192.23 725.66 193.31C725.45 202.21 725.4 211.12 725.2 220.02C725.18 220.84 724.62 221.79 724.05 222.44C722.99 223.63 723.01 225.79 723.87 227.21C724.63 228.47 725.21 229.98 725.36 231.44C725.6 233.74 725.22 236.11 725.48 238.4C725.61 239.5 727.08 240.48 727.1 241.53C727.12 242.58 725.82 243.59 725.58 244.71C725.32 245.93 725.19 247.38 726.91 248.07C727.31 248.23 727.59 249.24 727.54 249.83C727.32 252.47 729.15 254.13 730.4 256.05C730.64 256.44 731.37 256.59 731.91 256.69C733.1 256.92 734.43 256.77 734.68 258.55C734.72 258.87 735.76 259.26 736.34 259.27C738.91 259.28 741.86 259.95 743.97 258.92C747.2 257.35 750.47 257.12 753.79 256.51C754.87 256.31 755.79 255.04 756.69 254.16C757.83 253.02 758.8 251.71 759.99 250.62C761.03 249.67 762.28 248.23 763.41 248.24C765.89 248.28 766.87 246.29 768.59 245.35C768.84 245.21 769.06 244.91 769.18 244.63C769.88 243.04 770.93 241.47 771.11 239.81C771.45 236.8 773.73 235.55 775.53 233.76C776 233.3 775.96 232.25 776.03 231.46C776.18 229.84 771.75 228.04 773.72 227.19C773.86 227.13 774.02 226.98 774.06 226.84C774.87 224.21 775.65 221.56 776.47 218.93C776.94 217.41 777.48 215.9 778 214.38L778.75 214.35C778.38 213.99 777.84 213.7 777.67 213.26C777.47 212.73 777.29 211.85 777.58 211.51C779.31 209.42 780.84 207.23 781.07 204.43C781.23 202.49 781.01 200.85 779.63 198.99C778.67 197.7 779.41 194.84 779.99 192.86C780.28 191.87 781 191.36 779.92 190.44C778.54 189.26 778.66 187.09 779.78 185.74C780.19 185.25 780.28 184.27 780.13 183.6C779.9 182.55 779.21 181.61 778.97 180.56C778.62 179.01 779.65 176.96 777.2 176.22C777.07 176.18 777.03 174.9 777.34 174.5C779.32 171.92 779.06 169.73 777.41 166.81C776.45 165.13 776.53 162.82 776.34 160.77C776.16 158.8 777.06 156.63 774.77 155.19C774.36 154.93 775.58 153.78 775.47 153.05C775.23 151.51 777.92 150.55 775.59 150C775.42 149.96 774.34 147.66 774.34 147.46C774.45 144.32 774.08 143.7 772 142C771.83 141.86 771.66 141.58 771.67 141.36C771.73 136.89 767.68 135.58 765.28 133C763.42 131.01 761.68 128.88 759.73 126.98C757.84 125.14 755.1 123.86 753.92 121.7C752.47 119.06 748.89 120.35 747.83 117.44C747.64 116.89 745.49 117.13 744.29 116.81C743.49 116.59 742.17 116.08 742.13 115.6C741.77 111.91 737.2 111.63 736.45 108.35C736.41 108.2 736.01 108.03 735.8 108.06C732.69 108.47 731.89 105.52 729.99 104.17C729.43 103.77 728.46 103.71 727.73 103.84C727.09 103.94 726.53 104.53 725.94 104.9C725.92 103.88 725.46 102.4 725.97 101.92C727.39 100.56 728.2 99.7699 725.92 98.4299C725.37 98.1099 725.64 96.4199 725.51 95.3499C725.35 93.8899 725.92 92.2099 723.86 91.3699C723.38 91.1699 723.32 89.7199 723.22 88.8299C723.04 87.2599 723.61 85.0899 722.77 84.2099C720.75 82.1099 721.24 80.7599 722.75 78.7499C723.27 78.0599 722.39 76.3099 721.8 75.0799C722.55 73.7299 723.73 72.6299 721.32 70.9999C720.39 70.3699 720.14 67.9999 721.93 66.7099C722.43 66.3399 722.89 65.5598 722.93 64.9498C723.12 61.7298 723.14 58.5099 723.27 55.2899C723.3 54.5999 723.32 53.6599 723.74 53.2699C725.91 51.2499 725.98 49.9999 723.8 47.8599C723.7 47.7599 723.71 47.5499 723.59 47.1599C726.23 46.4299 725.33 44.2499 725.54 42.3799C725.67 41.2299 726.47 40.1699 726.94 39.0499C727.22 38.3699 727.36 37.6299 727.69 36.9799C728.11 36.1699 728.81 35.4799 729.13 34.6299C729.6 33.3799 729.99 32.0499 730.15 30.7299C730.35 29.0699 730.67 27.7899 732.75 27.8899C733.24 27.9099 734.15 27.5399 734.2 27.2399C734.54 25.3299 735.5 23.9399 736.82 22.4999C738.24 20.9299 739.52 19.4299 741.52 18.5699C742.42 18.1799 743.47 17.3499 743.73 16.4999C744.25 14.7899 745.2 14.5499 746.79 14.3899C749.08 14.1499 751.59 14.8999 753.5 12.2799C754.19 11.3299 756.94 11.7999 758.76 11.7699C760.92 11.7199 763.1 11.6999 765.25 11.9299C766.16 12.0199 767.02 12.7499 767.37 12.9299C769.68 12.5399 771.64 12.0399 773.61 11.9499C774.48 11.9199 775.36 12.7899 776.29 13.0899C777.75 13.5699 779.24 14.1299 780.75 14.2699C782.19 14.4099 782.93 14.8799 782.94 16.3399C782.94 17.5799 783.16 18.6599 784.68 18.9099C784.87 18.9399 785.09 19.2199 785.17 19.4299C785.98 21.6599 786.76 23.8999 787.55 26.1399C787.71 26.5999 787.7 27.3499 788 27.4899C791.52 29.1199 792 32.1999 792.26 35.5899C792.36 36.9099 793.36 38.1499 793.89 39.4499C794.16 40.1099 794.41 40.8299 794.45 41.5299C794.54 43.6099 794.52 45.6999 794.56 47.7799C794.57 48.3599 794.43 49.0699 794.7 49.4999C795.63 50.9699 796.96 52.3199 794.7 53.7899C794.57 53.8699 794.7 54.7799 794.91 54.8999C797.44 56.2799 795.93 57.4699 794.57 58.7199C795.92 60.0399 797.57 61.3498 794.92 62.8699C794.64 63.0299 794.64 63.7898 794.63 64.2799C794.6 69.1098 794.56 73.9398 794.61 78.7699C794.61 79.3099 795.12 79.8599 795.41 80.3999Z" fill="#F7CB4D"/>
<path d="M687.77 94.26C688.82 95.49 688.63 97.76 687.21 98.67C686.82 98.91 686.21 99.23 686.18 99.56C685.84 103.39 682.94 106.63 683.82 110.79C684.16 112.39 684.29 114.25 682.34 115.61C681.58 116.14 681.81 118.1 681.62 119.41C681.39 121.13 682.01 123.1 679.8 124.18C679.38 124.38 679.27 125.74 679.4 126.51C679.9 129.65 677.57 131.23 675.89 133.18C675.64 133.48 675.1 133.68 675.05 133.99C674.67 136.56 673.71 138.91 672.82 141.35C671.7 144.4 670.25 147.04 668.44 149.65C668.04 150.22 668.88 151.64 669.23 152.99C668.97 153.09 668.31 153.59 667.65 153.58C664.37 153.53 662.48 155.43 660.8 157.93C660.17 158.87 658.94 159.37 658.08 160.18C655.8 162.35 653.59 164.59 651.32 166.77C650.48 167.57 649.56 168.3 648.68 169.06C648.77 169.3 648.86 169.54 648.96 169.77C646.31 169.77 643.67 169.8 641.03 169.77C639.42 169.75 638.31 170.94 637.07 171.38C633.75 172.59 630.76 175.25 626.73 174.26C623.32 173.41 621.76 176.37 619.43 178C615.61 180.67 617.24 184.19 617.16 187.46C617.13 188.7 617 190.22 618.88 190.61C619.16 190.66 619.38 191.57 619.41 192.1C619.5 193.51 619.43 194.94 619.5 196.35C619.57 197.77 619.11 199.31 620.96 200.23C621.46 200.48 621.52 201.88 621.57 202.77C621.73 205.84 621.75 208.91 621.91 211.97C621.99 213.48 621.62 215.19 623.41 216.16C623.7 216.32 623.75 217.06 623.77 217.54C623.9 220.86 623.96 224.18 624.13 227.5C624.21 229.19 623.98 231.04 625.84 232.16C626.02 232.26 625.75 233.22 625.58 233.75C625.41 234.3 624.73 235.03 624.9 235.28C625.89 236.84 627.05 238.29 628.26 239.9C627.98 240.23 627.66 240.58 627.36 240.93C625.89 242.67 626.42 244.78 628.61 245.38C630.25 245.83 630.93 246.7 630.86 248.4C630.81 249.89 630.77 251.45 631.15 252.87C631.49 254.11 632.48 255.16 633.05 256.36C633.4 257.09 633.37 258.02 633.75 258.72C634.07 259.32 634.75 259.71 635.39 260.3C633.48 262.28 632.28 264.21 635.09 266.29C635.48 266.58 635.35 267.54 635.49 268.18C635.65 268.9 635.67 270.1 636.06 270.24C638.52 271.13 637.69 273.16 637.86 274.85C638.05 276.82 637.46 278.9 639.52 280.52C640.21 281.07 639.89 282.87 640.09 284.09C640.55 286.74 639.32 289.79 642.09 291.91C642.51 292.23 642.39 293.33 642.41 294.07C642.48 296.31 642.73 298.59 642.47 300.81C642.1 304.01 644.02 305.75 646.03 307.6C646.5 308.02 646.77 308.85 646.8 309.52C646.91 311.34 646.73 313.19 646.87 315.01C646.99 316.54 646.44 318.55 648.91 318.9C649.04 318.92 649.2 319.09 649.24 319.23C650.86 324.42 653.32 329.53 651.33 335.17C651.11 335.82 650.16 336.64 649.53 336.66C643.8 336.79 638.05 337.03 632.36 336.58C630.96 336.47 628.82 334.82 628.51 332.45C628.27 330.69 628.78 328.83 626.84 327.31C626.05 326.7 626.64 324.32 626.59 322.75C626.51 320.35 627.36 317.67 624.42 316.14C624.06 315.95 624.1 314.92 624.03 314.27C623.84 312.52 624.32 310.59 622.35 309.36C621.98 309.13 622.19 308.09 621.95 307.5C621.53 306.46 620.88 305.52 620.51 304.47C620.09 303.25 619.81 301.97 619.59 300.69C619.39 299.45 619.81 298.17 618.13 297.36C617.43 297.02 617.23 295.31 617.12 294.2C616.94 292.38 617.04 290.54 617 288.71C616.98 288.13 617.07 287.21 616.77 287.04C614.46 285.72 615.42 283.38 614.82 281.54C614.09 279.35 612.69 277.39 611.6 275.31C611.21 274.56 610.65 273.78 610.6 272.99C610.44 270.5 610.53 268 610.45 265.5C610.4 263.74 610.72 261.89 608.72 260.67C608.19 260.35 608.22 258.98 608.15 258.09C608 256.1 608.15 254.07 607.8 252.12C607.18 248.59 607.11 244.62 605.35 241.73C602.32 236.75 604.13 231.56 603.29 226.54C603.01 224.9 604.17 222.8 601.55 221.97C601.27 221.88 601.32 220.61 601.31 219.89C601.27 217.74 601.44 215.56 601.19 213.43C601.08 212.48 600.04 211.68 599.6 210.72C598.55 208.39 597.55 206.03 596.69 203.63C596.54 203.2 597.03 202.4 597.43 201.96C599.22 200.01 599.22 197.3 597.46 195.32C597.02 194.81 596.57 194.03 596.62 193.42C596.91 189.9 595.75 187.21 592.51 185.57C592.38 185.5 592.19 185.31 592.21 185.2C592.63 182.77 590.58 181.51 589.5 179.87C588.74 178.7 587.32 177.97 586.17 177.07C586.08 176.99 585.79 177.02 585.7 177.11C582.32 180.19 578.19 178.27 574.43 178.76C572.88 178.96 571.28 178.71 569.7 178.66C568.41 178.62 567.03 178.97 566.26 177.33C566.08 176.95 565.09 176.82 564.46 176.8C561.9 176.71 559.34 176.72 556.78 176.66C556.3 176.66 555.49 176.62 555.4 176.38C554.2 173.39 551.51 174.5 549.4 174.18C548.11 173.98 546.74 174.19 545.41 174.28C544.93 174.31 544.34 174.36 544.01 174.64C542.44 175.99 540.89 177.36 539.45 178.85C539.01 179.31 538.77 180.16 538.78 180.83C538.81 187.16 538.86 193.48 539.06 199.8C539.1 200.86 539.92 201.89 540.15 202.41C539.72 204.28 539.33 205.82 539.03 207.38C538.96 207.75 539.09 208.25 539.32 208.55C541.64 211.64 541.62 212.6 539.35 215.95C539.02 216.44 539.05 217.22 539.04 217.87C538.98 223.7 538.9 229.53 538.94 235.36C538.94 236.65 538.46 238.29 540.36 238.98C540.51 239.03 540.49 240.51 540.22 240.64C538.42 241.5 538.51 242.27 540.09 243.26C541.29 244.01 541.19 244.68 540.03 245.51C539.61 245.81 539.31 247.16 539.46 247.26C541.66 248.7 540.67 250.88 540.79 252.75C540.89 254.44 541.72 256.31 539.4 257.53C538.82 257.83 538.97 259.7 538.96 260.85C538.9 265.6 538.96 270.35 538.84 275.09C538.81 275.95 537.91 276.75 537.62 277.64C537.15 279.1 536.67 280.59 536.52 282.1C536.09 286.52 536.15 286.52 531.81 286.85C531.48 286.88 530.98 286.79 530.85 286.97C528.66 290.04 525.4 288.44 522.65 288.75C519.8 289.08 516.87 288.83 514.06 288.83C513.15 284.92 510.29 281.79 511.58 277.76C511.86 276.87 512.37 276.06 512.68 275.19C513.01 274.29 513.43 273.37 513.46 272.44C513.59 268.46 513.46 264.46 513.71 260.48C513.81 258.9 514.64 257.36 515.02 256.16C514.62 253.94 514.07 251.87 513.91 249.78C513.61 245.97 513.55 242.14 513.37 238.32C513.35 237.84 513.33 237.11 513.03 236.92C510.55 235.28 512.01 232.82 511.67 230.76C511.63 230.53 511.65 230.13 511.79 230.04C515.02 228.07 513.19 225.02 513.39 222.43C513.44 221.84 513.18 220.98 512.75 220.63C511.3 219.45 511.29 218.64 512.93 217.6C513.37 217.32 513.46 216.27 513.48 215.56C513.55 212.41 513.54 209.24 513.56 206.09C513.56 205.84 513.65 205.46 513.53 205.35C511.38 203.62 512.68 202.22 513.42 200.23C514.27 197.96 513.6 195.16 513.83 192.61C513.91 191.7 514.73 190.87 515.13 189.97C515.41 189.32 515.74 188.61 515.75 187.92C515.85 179.52 515.9 171.12 515.97 162.72C515.98 160.97 515.37 158.64 516.25 157.6C518.24 155.24 517.39 153.75 516.38 151.35C515.45 149.15 515.99 146.27 516.14 143.7C516.19 142.91 517.09 142.16 517.72 141.22C515.37 138.76 515.3 135.97 517.52 133.03C518.7 131.47 517.92 127.8 516.92 126.19C516.26 125.14 516.21 122.84 516.93 121.94C518.86 119.53 518.99 114.32 516.75 112.23C516.49 111.99 516.75 111.01 516.99 110.48C517.35 109.71 518.3 109.06 518.33 108.34C518.5 103.94 518.62 99.52 518.46 95.12C518.41 93.7 517.48 92.31 516.96 90.91C516.7 90.95 516.44 90.98 516.18 91.01C516.41 90.63 516.67 90.25 516.89 89.86C517.23 89.24 517.44 88.52 517.9 88.01C519.54 86.2 513.33 84.34 517.96 82.62C518.17 80.41 518.39 78.19 518.6 75.98C518.64 75.57 518.51 74.99 518.73 74.76C520.79 72.63 521.04 70.57 518.73 68.44C518.56 68.28 518.66 67.55 518.87 67.29C521.7 63.78 520.35 59.55 520.78 55.66C521.08 52.98 520.5 50.2 520.4 47.46C520.37 46.92 520.59 46.31 520.88 45.83C522.66 42.91 531.04 39.97 533.38 42.16C536.09 44.72 538.86 43.62 541.62 43.86C543.28 44 545.16 44.18 546.3 42.29C546.48 41.99 547.2 41.92 547.67 41.91C551.92 41.85 556.16 41.79 560.4 41.82C562.07 41.83 563.73 41.53 565.07 43.32C566 44.58 570.12 43.44 571.5 42.52C572.62 41.78 574.26 41.61 575.67 41.57C578.83 41.48 581.99 41.71 585.14 41.61C585.96 41.58 586.76 40.82 587.56 40.4C588.17 40.09 588.76 39.58 589.4 39.49C590.63 39.32 591.89 39.52 592.41 37.89C592.52 37.56 593.58 37.4 594.2 37.39C598.95 37.3 603.69 37.25 608.43 37.24C608.97 37.24 609.87 37.39 610 37.71C610.84 39.84 612.69 39.36 614.24 39.39C616.23 39.43 618.23 39.26 620.22 39.1C620.75 39.06 621.46 38.88 621.74 38.5C622.61 37.29 623.11 37.11 624.09 38.51C625.14 40.02 627.78 39.58 629.03 38.1C629.32 37.75 630.32 37.74 630.87 37.94C631.76 38.25 632.5 39.04 633.4 39.29C634.34 39.56 635.4 39.35 636.38 39.48C638.75 39.8 641.16 38.73 643.44 41.04C645.26 42.87 650.9 41.55 652.96 39.5C655.57 42.64 659.2 41.69 662.59 41.82C664.03 41.87 665.23 41.8 665.63 43.84C665.82 44.81 667.44 45.49 668.37 46.34C669 46.91 669.89 47.47 670.1 48.2C670.98 51.28 673.46 53.08 675.48 55.22C676.98 56.8 678.81 57.94 679.66 60.22C680.26 61.85 681.81 63.13 682.96 64.54C683.1 64.71 683.58 64.79 683.58 64.86C683.12 67.63 685.86 69.33 685.94 71.89C686.14 78.46 686.27 85.03 686.56 91.6C686.6 92.52 687.15 93.55 687.77 94.27V94.26Z" fill="#F7CB4D"/>
<path d="M474.37 29.7101C474.49 31.5301 474.49 33.3701 474.43 35.2001C474.41 35.8101 474.23 36.5501 473.84 36.9901C471.49 39.6901 471.51 40.7601 474.35 42.7701C472.84 44.4801 471.49 46.3401 469.79 47.7801C469.06 48.4001 467.59 48.1101 466.47 48.2901C465.05 48.5101 463.4 47.7801 462.5 49.9301C462.22 50.6001 460.11 50.5901 458.82 50.7401C457.61 50.8701 456.31 50.4901 455.73 52.1501C455.58 52.5801 454.66 52.8701 454.05 52.9601C451.98 53.2901 451.47 54.5101 451.48 56.4601C451.53 63.5301 451.48 70.6101 451.37 77.6901C451.34 78.9701 450.73 80.2401 450.38 81.5901C450.68 82.8801 451.31 84.3901 451.33 85.9201C451.44 92.6601 451.4 99.4101 451.34 106.15C451.33 106.75 450.94 107.53 450.47 107.91C448.77 109.29 448.8 111.52 450.53 112.93C451.81 113.96 452.9 115.21 454.17 116.26C454.5 116.54 455.3 116.67 455.64 116.46C456.56 115.88 457.36 115.11 458.19 114.39C460.68 112.23 462.78 112.21 465.37 114.3C465.61 114.5 465.98 114.75 466.23 114.69C468.72 114.19 469.97 115.9 471.24 117.49C471.62 117.96 471.98 118.71 471.89 119.25C471.47 121.74 473.14 124.75 470.14 126.66C469.91 126.81 469.87 127.47 469.95 127.85C470.67 131.14 468.59 133.59 467.37 136.26C467.13 136.78 466.26 137.21 465.63 137.29C463.82 137.52 461.9 137.23 460.19 137.74C457.5 138.53 454.79 139.55 452.41 141C451.57 141.51 451.37 143.54 451.36 144.88C451.32 153.85 451.42 162.82 451.43 171.79C451.43 173.8 451.71 175.76 449.94 177.55C448.47 179.02 449.46 183.12 451.52 184.99C448.89 185.64 449.04 187.43 449.13 189.29C449.23 191.44 449.07 193.61 449.19 195.76C449.28 197.34 448.89 199.18 450.9 200.08C451.1 200.18 451.15 201.3 451.02 201.35C448.66 202.32 449.46 204.46 449.36 206.12C449.13 210.26 448.84 214.45 449.19 218.57C449.36 220.63 450.87 222.59 451.86 224.55C451.97 224.77 452.62 224.8 453.02 224.8C456.41 224.83 459.8 224.84 463.19 224.83C464.25 224.83 464.86 224.36 465.73 223.59C466.89 222.57 469.12 222.64 470.9 222.59C471.23 222.59 471.88 224.22 471.91 225.11C471.96 226.86 472.32 228.78 470.36 230.02C470.01 230.24 470.12 231.27 470.12 231.93C470.1 236.99 470.11 242.06 470.11 247.7C465.78 247.7 461.82 247.66 457.86 247.73C456.17 247.75 454.24 246.93 453.09 249.28C452.81 249.86 451.1 249.91 450.05 249.91C443.06 249.89 436.06 249.81 429.07 249.67C428.28 249.65 426.9 249.2 426.83 248.77C426.64 247.73 426.74 246.36 427.3 245.51C429.01 242.95 428.92 238.06 427.14 235.47C426.36 234.33 425.77 232.83 427.57 231.63C428.98 230.69 428.82 227.95 427.57 226.69C427.1 226.21 426.85 225.49 426.56 224.85C426 223.67 425.48 222.47 424.79 220.93C426.87 220.23 425.76 217.8 426.1 215.82C426.13 215.65 426.13 215.48 426.21 215.33C426.85 214.04 428.01 212.74 428 211.46C428 210.22 426.98 208.78 426.03 207.81C424.19 205.96 424.99 204.63 425.85 202.58C426.77 200.41 426.42 197.68 426.48 195.19C426.55 192.44 426.42 189.69 426.44 186.94C426.45 185.58 426.12 184.07 427.9 183.33C428.22 183.2 428.34 182.31 428.36 181.77C428.43 179.36 428.56 176.93 428.39 174.53C428.33 173.56 427.4 172.67 427.17 171.67C426.92 170.56 426.53 168.75 427.06 168.33C428.79 166.97 428.53 165.24 428.53 163.58C428.57 155.68 428.43 147.78 428.57 139.88C428.59 138.41 429.87 137 430.13 135.48C430.36 134.08 430.15 132.55 429.84 131.14C429.6 130.03 428.4 128.95 428.52 127.98C428.9 124.99 428.06 121.88 430.47 119.03C431.59 117.7 430.79 114.74 430.81 112.52C430.88 106.37 430.87 100.21 431.01 94.0601C431.03 93.2601 431.8 92.4901 432.21 91.7001C432.46 91.2201 432.86 90.7301 432.88 90.2301C432.95 88.3201 432.9 86.4001 432.86 84.4901C432.85 84.0901 432.8 83.4501 432.57 83.3301C429.7 81.8901 431.41 80.6401 432.78 79.4701C430.36 76.6601 430.38 76.6701 432.76 73.4701C433.07 73.0501 433.1 72.3601 433.1 71.8001C433.06 68.3901 432.98 64.9801 432.91 61.5701C432.91 61.4101 432.95 61.1501 432.87 61.0901C430.48 59.2401 431.81 57.5001 432.78 55.5401C433.07 54.9501 432.24 53.7801 431.9 52.8801C431.62 52.1701 431.05 51.4801 431.04 50.7701C430.98 45.2801 430.83 39.7701 431.19 34.3001C431.28 32.9901 433.27 31.8501 434.27 30.5401C435.66 28.7301 436.87 27.7401 439.1 29.7401C439.99 30.5401 442.02 30.8601 442.59 28.5201C442.67 28.2001 443.69 27.9801 444.28 27.9501C445.94 27.8601 447.63 28.0301 449.27 27.8301C450.43 27.6901 451.53 27.1101 453.11 26.5701C453.98 27.3201 455.18 29.1001 456.76 29.5301C459.25 30.2201 461.98 30.0101 464.62 30.1401C464.82 30.1401 465.07 29.9501 465.23 29.7801C465.77 29.1801 466.25 28.0501 466.82 28.0101C469.04 27.8601 471.29 27.9801 473.51 28.1701C473.85 28.2001 474.32 29.1601 474.36 29.7101H474.37Z" fill="#F7CB4D"/>
<path d="M398.26 83.5201C397.92 84.1701 397.7 84.9301 397.23 85.4701C396.02 86.8601 394.86 88.3701 393.39 89.4201C391.2 91.0001 392.06 93.1401 391.89 95.1001C391.87 95.3401 391.92 95.7401 392.07 95.8001C395.5 97.4401 393.34 100.41 394.1 103.16C392.96 103.16 392.17 103.08 391.39 103.17C389.6 103.37 387.54 102.66 386.36 104.9C386.11 105.36 385.01 105.45 384.28 105.57C382.56 105.85 380.79 105.53 379.41 107.35C378.86 108.08 376.91 107.88 375.59 107.88C373.66 107.88 372.96 108.78 372.94 110.63C372.92 112.29 373.76 114.25 371.25 115.26C370.89 115.4 371.48 118.17 371.83 119.68C372.01 120.48 372.78 121.14 372.99 121.93C373.45 123.66 372.76 125.69 374.97 126.94C375.48 127.22 375.35 129.77 374.7 130.72C373.18 132.96 373.08 136.03 374.64 138.23C375.28 139.13 375.41 140.58 375.36 141.76C375.28 143.81 376.42 146.21 373.8 147.75C373.33 148.02 373.49 149.47 373.47 150.38C373.33 159.78 373.13 169.17 373.11 178.57C373.09 186.61 373.35 194.65 373.35 202.69C373.36 206.48 372.92 210.27 372.94 214.06C372.96 217.95 372.74 221.98 373.7 225.67C374.22 227.71 374.03 229.09 373.79 231.04C373.16 236.04 373.22 241.2 373.71 246.23C373.91 248.28 375.76 250.21 375.33 252.62C375.22 253.18 375.36 253.99 375.04 254.28C372.6 256.38 373.09 258.34 375.23 260.21C372.54 263.32 372.58 269.04 375.13 271.68C374.7 272.64 373.96 273.86 372.64 274.65C372.04 275.01 371.99 274.89 371.71 275.11C370.37 276.17 371.05 279.28 372.37 286.53C372.74 288.54 372.81 289.67 372.27 290.34C371.64 291.14 369.93 291.26 368.92 289.71C368.03 288.37 358.38 288.41 357.66 289.8C356.9 291.29 355.95 291.2 354.62 291.13C351.8 291 348.96 291.07 346.14 291.11C344.35 291.14 343.41 290.65 343.5 288.54C343.68 284.05 343.55 279.55 343.68 275.05C343.7 274.33 344.38 273.62 344.75 272.9C345.06 272.3 345.55 271.7 345.63 271.07C345.81 269.5 345.77 267.91 345.88 266.33C345.92 265.67 345.86 264.69 346.25 264.42C348.02 263.18 349.05 262.15 346.26 260.93C346.09 260.85 346.05 259.93 346.26 259.62C348.45 256.35 348.47 256.05 346.14 253.22C348.34 251.3 348.82 249.41 346.22 247.23C345.01 246.2 346.13 241.33 347.79 239.65C345.43 238.7 345.43 236.93 345.99 234.84C346.26 233.83 346.03 232.69 346.05 231.61C346.06 231.03 345.89 230.12 346.18 229.93C349.09 228.04 347.68 225.14 347.78 222.7C347.83 221.65 346.23 220.55 346.21 219.47C346.21 218.48 347.83 217.49 347.85 216.49C347.88 214.42 348.86 211.99 346.41 210.36C345.99 210.08 346.03 208.97 346.02 208.24C345.87 199.42 345.76 190.59 345.62 181.77C345.6 179.85 345.55 177.94 345.47 176.03C345.45 175.55 345.41 174.77 345.14 174.64C343.01 173.66 343.51 172.81 345.08 171.74C345.32 171.58 345.24 170.32 345.04 170.24C342.95 169.38 343.68 167.62 343.67 166.16C343.63 157.5 343.61 148.83 343.69 140.17C343.7 139.13 344.4 138.1 344.75 137.06C345.01 136.29 345.42 135.5 345.44 134.72C345.58 126.91 345.72 119.1 345.72 111.28C345.72 107.89 343.5 105.68 340.45 105.71C339.9 105.72 338.99 105.82 338.87 106.12C338.01 108.27 336.17 107.72 334.61 107.74C331.37 107.79 328.11 107.81 324.87 107.62C324.17 107.58 323.07 106.72 322.94 106.07C322.59 104.41 322.71 102.64 322.58 100.92C322.37 98.3401 323.78 95.3601 320.65 93.5401C323.56 90.1901 323 86.3401 322.53 82.5801C322.32 80.8601 322.8 80.3 324.48 80.34C328.2 80.43 331.93 80.4301 335.65 80.4401C339.05 80.4601 342.44 80.5301 345.83 80.4101C346.59 80.3801 347.3 79.6101 348.06 79.2401C348.69 78.9401 349.34 78.5401 350 78.4901C351.74 78.3401 353.49 78.3401 355.24 78.3301C355.72 78.3301 356.49 78.3601 356.63 78.6301C357.91 81.1601 360.18 80.1501 362.13 80.2601C362.53 80.2801 363.2 80.2301 363.31 80.0101C364.64 77.2801 367.04 78.6501 369.02 78.4701C369.48 78.4201 370.24 78.5101 370.41 78.8001C371.76 81.1701 373.92 80.3401 375.92 80.3801C378.31 80.4401 380.71 80.6801 383.09 80.9201C383.53 80.9701 383.91 81.4001 384.34 81.6001C385.23 82.0301 386.11 82.72 387.03 82.7701C390.1 82.93 393.19 82.8101 396.26 82.8901C396.93 82.8901 397.59 83.3001 398.26 83.5201Z" fill="#F7CB4D"/>
<path d="M191.16 106.52C191.25 106.59 191.19 106.83 191.21 107.19C188.82 107.58 188.95 109.44 188.98 111.27C189.01 113.02 188.94 114.78 189.06 116.52C189.12 117.4 189.28 118.76 189.83 119.04C192.48 120.41 191.19 121.47 190.3 122.1C190.73 124.44 191.54 126.35 191.3 128.12C190.87 131.27 192.56 133.12 194.31 135.2C196.26 137.5 198.69 138.36 201.53 137.9C202.79 137.69 204.15 137.11 205.12 136.29C206.64 135.02 211.18 135.06 212.34 136.63C213.39 138.05 215.47 138.15 216.74 136.86C217.13 136.47 217.53 135.89 218 135.81C222.84 134.95 227.38 132.53 232.51 133.1C234.57 133.32 236.67 133.13 238.75 133.17C239.5 133.19 240.5 133.06 240.94 133.47C242.47 134.91 243.78 135.85 245.39 133.57C245.47 133.46 247.05 134.43 248.14 135C249.16 134.19 250.39 132.02 251.83 134.89C251.9 135.02 253.05 134.85 253.44 134.52C255.2 133.02 256.5 133.08 258.21 134.58C258.64 134.97 259.97 135.01 260.38 134.64C262.32 132.94 267.62 132.79 269.67 134.43C270.12 134.78 271.07 134.74 271.7 134.57C272.62 134.33 273.46 133.48 274.35 133.45C280.08 133.21 285.81 133.12 291.54 132.98C294.66 132.91 295.02 133.19 295.03 136.24C295.04 139.15 294.96 142.06 294.88 144.97C294.88 145.45 294.76 146.29 294.56 146.34C291.72 146.93 292.48 149.21 292.53 150.92C292.6 153.11 291.67 153.78 289.65 153.98C288.3 154.11 287.03 154.91 285.68 155.26C285.18 155.39 284.54 155.16 284.01 154.97C283.03 154.61 282.06 153.77 281.13 153.84C278.62 154.01 276.05 153.24 273.68 155.48C272.54 156.56 269.85 156 267.86 156.21C267.12 156.28 266 156.12 265.71 156.54C264.48 158.29 263.51 158.49 262.32 156.55C262.2 156.36 261.11 156.39 260.97 156.63C259.48 159.06 257.14 158.37 254.98 158.41C253.65 158.43 252.18 158.1 251.01 158.55C248.75 159.43 246.68 160.79 244.48 161.84C243.94 162.1 242.9 162.21 242.59 161.9C241.03 160.32 239.07 160.1 237.68 161.78C236.7 162.97 236.22 163.07 235.33 161.71C234.21 159.98 229.34 160.11 228.14 161.71C227.76 162.21 227.03 162.75 226.46 162.76C222.88 162.81 219.31 162.74 215.73 162.63C215.34 162.62 214.87 162.24 214.58 161.91C213.41 160.59 211.34 160.48 210.11 161.49C209.38 162.09 208.37 162.65 207.47 162.68C203.32 162.83 199.15 162.98 195 162.74C191.97 162.56 190.98 165.04 189.16 166.44C186.11 168.8 187.09 172.28 187.03 175.31C186.87 183.55 187.02 191.8 187.09 200.04C187.1 200.61 187.39 201.32 187.79 201.74C189.18 203.18 189.36 205.06 187.95 206.33C186.85 207.3 186.77 207.94 188.01 208.85C188.35 209.11 188.37 210.13 188.2 210.7C187.92 211.6 187 212.42 186.99 213.29C186.89 224.78 186.88 236.27 186.95 247.76C186.95 248.62 187.9 249.44 188.18 250.35C188.34 250.87 188.06 251.53 187.94 252.13C187.93 252.19 187.63 252.21 187.47 252.21C184.37 252.16 181.7 252.73 181.51 256.2C179.7 255.53 178.41 255 177.09 254.61C176.68 254.5 176.02 254.65 175.7 254.93C172.63 257.65 170.22 257.17 168.27 253.46C167.86 252.69 166.92 252.11 166.75 251.33C166.48 249.99 166.4 248.85 167.54 247.34C168.57 245.99 168.33 243.02 167.6 241.19C166.81 239.2 165.74 233.26 167.16 231.63C169.31 229.15 168.31 226.49 168.02 223.84C167.97 223.36 168.16 222.85 168.09 222.38C167.88 220.85 167.64 219.33 167.32 217.82C167.21 217.3 166.59 216.85 166.57 216.35C166.45 213.4 166.39 210.44 166.45 207.49C166.45 207.01 167.5 206.59 167.58 206.06C167.78 204.73 167.92 203.32 167.7 202C167.51 200.82 166.42 199.73 166.4 198.59C166.19 188.29 166.1 177.99 166.05 167.7C166.02 161.62 166.12 155.54 166.13 149.47C166.13 148.27 166.23 147.17 164.77 146.31C164.22 145.99 164.3 143.65 164.85 142.65C165.61 141.3 166.62 136.53 165.43 135.72C163.64 134.51 163.96 132.84 163.93 131.28C163.82 125.86 163.84 120.45 163.83 115.03C163.83 113.84 163.9 112.69 162.33 112.3C161.99 112.22 161.5 111.53 161.56 111.2C162.18 107.77 160.51 103.98 163.14 100.85C163.37 100.59 163.48 99.87 163.31 99.7C160.6 97.01 161.79 93.53 161.69 90.48C161.46 82.77 161.83 75.04 161.85 67.31C161.85 63.91 161.57 60.5 161.4 57.09C161.38 56.69 161.39 56.06 161.15 55.91C159.2 54.73 159.26 53.76 161.26 52.68C161.41 52.61 161.09 50.92 160.58 50.54C159.41 49.66 159.24 49.12 160.58 48.38C160.85 48.23 161.15 48.01 161.29 47.75C162.45 45.56 161.4 37.61 159.61 35.84C162.85 34.19 161.35 31.23 161.58 28.71C161.65 27.98 161.4 27.23 161.38 26.48C161.32 23.43 161.51 23.36 164.55 23.31C166.1 23.28 168.15 24.1 168.87 21.5C168.92 21.31 171.91 21.38 172.94 22.14C174.18 23.05 174.53 23.38 175.54 21.96C176.73 20.3 183.01 20.61 184.55 22.14C184.98 22.56 185.6 23.05 186.14 23.06C193.78 23.24 201.43 23.37 209.08 23.43C210.4 23.43 212.01 23.76 212.68 21.91C212.73 21.77 213.98 21.8 214.41 22.11C215.42 22.84 222.37 23.92 222.88 22.97C224.92 19.18 227.98 21.69 230.58 21.47C231.04 21.43 231.71 21.54 231.97 21.85C234.34 24.71 236.71 22.92 239.31 22.18C242.13 21.37 245.14 21.24 248.07 20.9C249.56 20.73 251.21 21.39 251.85 19.1C252.17 17.97 254.96 18.58 256.06 19.73C256.48 20.17 257.49 20.37 258.12 20.22C259.54 19.87 260.85 18.92 262.27 18.77C264.23 18.56 266.27 19.09 268.24 18.89C270.05 18.7 271.8 17.96 273.57 17.47C274.43 17.24 275.29 16.89 276.16 16.83C278.65 16.68 281.15 16.56 283.65 16.62C284.39 16.63 285.14 17.24 285.86 17.63C286.46 17.95 287 18.64 287.6 18.68C289.59 18.8 291.59 18.74 293.59 18.67C294.03 18.66 294.69 18.42 294.86 18.09C295.87 16.07 296.45 17.24 297.77 17.98C299.38 18.88 301.59 18.65 303.52 19.02C304.46 19.21 306.09 19.6 306.13 20.02C306.3 21.83 306.68 24.32 305.71 25.39C304.38 26.85 304.07 28.27 304.17 29.83C304.38 33.13 302.74 35.2 300.22 36.87C299.08 37.63 299.47 39.92 300.79 41.21C301.36 41.77 301.68 42.58 302.54 43.95C298.76 43.95 295.87 43.92 292.97 43.96C291.01 43.98 289.01 43.26 287.39 45.49C286.81 46.27 284.59 45.96 283.12 45.98C280.43 46.01 277.6 45.41 275.62 48.26C274.18 46.91 273 45.4 271.46 44.51C270.48 43.95 268.16 43.81 267.85 44.32C266.53 46.52 264.48 45.74 262.74 46.1C260.94 46.46 258.84 45.79 257.55 47.81C257.47 47.93 256.32 47.66 256.04 47.29C255.13 46.11 254.46 46.15 253.48 47.24C252.12 48.74 250.32 48.47 249.1 46.87C248.77 46.44 248 46.01 247.52 46.09C245.39 46.45 242.81 45.23 241.22 47.86C240.97 48.28 239.83 48.27 239.09 48.28C235.95 48.35 232.8 48.26 229.67 48.42C228.49 48.48 227.12 48.77 226.23 49.47C224.02 51.19 221.26 51.39 219.4 49.41C218.34 48.27 217.64 48.28 216.53 49.31C215.87 49.93 214.85 50.44 213.96 50.49C210.89 50.66 207.82 50.6 204.74 50.65C201.67 50.71 198.6 50.8 195.53 50.9C195.13 50.91 194.51 50.98 194.38 51.23C193.38 53.17 192.02 55.08 191.64 57.15C191.14 59.9 191.37 62.79 191.39 65.62C191.4 67.24 191.93 68.81 189.99 69.98C189.48 70.29 189.77 72.27 190.01 73.41C190.32 74.86 191.27 76.21 191.38 77.64C191.57 80.37 192.05 83.39 191.14 85.81C190.06 88.68 189.2 90.98 191.19 93.73C191.51 94.17 190.37 95.56 190.12 96.56C189.96 97.22 189.92 98.42 190.26 98.63C192.35 99.85 191.68 102.25 190.89 102.82C188.5 104.53 189.88 105.38 191.15 106.52H191.16Z" fill="#F7CB4D"/>
<path d="M91.44 49.19C92.3501 49.77 93.34 50.26 94.13 50.97C94.55 51.34 94.81 52.09 94.81 52.67C94.89 59.07 95.01 65.47 94.9 71.87C94.85 75.27 96.39 77.48 99.43 79.2C99.06 79.63 98.7 80 98.39 80.4C98.1 80.78 97.55 81.39 97.65 81.55C99.65 84.66 95.9501 87.56 97.4 90.74C97.98 92.03 97.17 93.77 98.96 94.87C99.57 95.24 99.54 96.87 99.57 97.93C99.64 100.76 99.44 103.6 99.65 106.41C99.76 107.84 100.48 109.24 100.99 110.62C101.73 112.65 101.82 114.49 100.24 115.29C100.92 117.25 101.45 118.81 101.99 120.36C102.13 120.74 102.21 121.29 102.49 121.44C104.58 122.56 104.24 123.32 102.25 124.11C101.92 124.24 101.75 125.11 101.75 125.64C101.73 128.8 101.69 131.96 101.89 135.1C101.94 136.09 102.72 137.01 103.11 137.99C103.39 138.71 103.73 139.47 103.75 140.22C103.88 144.22 103.8 148.22 104.03 152.2C104.13 153.9 104.79 155.57 105.31 157.7C102.59 160.75 104.65 165.04 104.19 168.99C108.11 172.63 105.6 177.41 106.42 181.61C106.74 183.24 106.15 184.98 108.03 186.27C108.67 186.7 108.41 188.6 108.37 189.82C108.31 191.46 108.1 193.06 110.49 193.52C109.28 195.14 108.35 196.63 110.48 197.97C110.72 198.12 110.72 198.75 110.73 199.15C110.82 202.98 110.98 206.82 110.89 210.64C110.86 211.86 110.16 213.07 109.62 214.72C110.77 216.58 112.46 218.71 113.48 221.47C114.18 223.35 114.79 224.18 113.78 226.26C113.04 227.78 112.32 230.53 114.9 232.3C115.61 232.79 115.26 234.79 115.45 236.1C115.71 237.9 114.61 240.24 117.44 241.08C117.7 241.16 117.79 242.12 117.8 242.68C117.88 245.74 117.8 248.82 118 251.88C118.13 253.83 117.57 255.98 119.62 257.58C120.2 258.04 119.81 259.65 119.98 260.72C120.19 262 119.65 263.68 121.75 264.08C122.03 264.14 122.26 265.19 122.28 265.79C122.39 269.12 122.37 272.46 122.51 275.79C122.57 277.4 121.85 279.34 124.12 280.28C124.44 280.42 124.45 281.5 124.48 282.15C124.56 284.48 124.7 286.82 124.58 289.14C124.54 289.97 123.82 290.75 123.45 291.57C123.09 292.36 122.93 293.29 122.44 293.98C121.17 295.77 121 296.97 122.22 299.33C123.38 301.56 124.75 303.27 126.34 305.05C126.9 305.68 127.02 306.84 127.07 307.77C127.35 313.67 127.33 313.65 121.45 313.88C119.9 313.94 118.02 313.43 117.46 315.81C117.39 316.08 116.28 316.12 115.65 316.23C113.78 316.56 111.4 315.45 110.37 318.18C110.28 318.44 109.45 318.4 108.97 318.52C107.34 318.9 105.6 319.04 104.12 319.74C102.77 320.37 101.7 321.59 100.57 322.49C96.71 320.98 96.9901 317.66 97.01 314.41C97.03 312.5 97.54 310.3 96.77 308.74C93.49 302.03 95.72 295 95.2 288.16C95.14 287.28 96.0201 286.34 96.55 285.24C93.75 282.74 94.9 279.1 94.74 275.81C94.54 271.5 94.88 267.16 94.78 262.84C94.76 261.97 93.85 261.12 93.85 260.38C94.18 258.92 94.76 257.47 94.8 256C94.9 251.52 94.8 247.04 94.78 242.57C94.78 242.32 94.82 241.87 94.75 241.85C91.51 240.95 93.52 237.05 91.2 235.63C90.95 235.48 90.72 235.13 90.67 234.83C90.1 231.33 87.4 231.35 84.82 231.39C82.67 231.42 80.5201 231.71 78.3701 231.89C78.2901 231.9 78.1701 231.88 78.1201 231.92C74.7001 234.95 73.48 231.69 71.7201 229.75C71.3601 229.36 70.5201 229.31 69.89 229.29C68.06 229.24 66.1801 229.57 64.4101 229.24C61.0401 228.6 59.5401 230.8 57.9501 232.98C56.5401 234.91 55.14 236.85 53.84 238.85C53.51 239.35 53.5101 240.11 53.4901 240.76C53.3801 243.67 53.34 246.58 53.25 249.5C53.18 251.44 53.23 253.2 51.7001 255C50.6701 256.2 50.8601 258.66 50.9501 260.54C51.09 263.39 50.7401 266.21 48.3101 267.74C45.7101 269.37 46.92 270.42 48.46 271.82C48.14 271.84 47.82 271.87 47.51 271.9C47.15 273.05 46.5201 274.19 46.48 275.35C46.33 279.26 46.4 283.17 46.37 287.08C46.37 287.57 46.36 288.39 46.12 288.48C43.13 289.68 44.4701 292.33 44.2401 294.32C43.9801 296.52 44.17 298.81 44.48 301.02C44.62 302.01 45.51 302.89 45.78 303.34C45.06 305.01 44.8101 306.9 43.7401 307.75C41.4201 309.59 42.9601 313.17 40.1301 314.77C39.6 315.08 39.6901 317.77 40.3801 318.7C42.0601 320.94 42.18 321.62 40.2001 323.32C39.7001 323.74 39.5401 324.77 39.5601 325.52C39.6101 327.07 39.16 327.79 37.44 327.74C34.28 327.64 31.11 327.62 27.96 327.81C26.11 327.92 24.28 328.5 22.25 328.92C21.19 328.67 19.71 328.38 18.27 327.96C17.64 327.77 16.59 327.31 16.59 326.97C16.57 325.8 16.61 323.84 17.22 323.58C21.36 321.86 21.31 318.4 21.3 314.88C21.28 310.4 21.12 305.92 21.24 301.45C21.27 300.38 22.22 299.34 22.69 298.26C22.99 297.56 23.37 296.81 23.4 296.07C23.46 293.99 23.32 291.91 23.34 289.83C23.36 288.48 23.02 286.92 25.06 286.48C25.4 286.41 25.71 285.42 25.74 284.84C25.91 280.02 26.02 275.2 26.15 270.38C26.16 269.97 26.1 269.46 26.31 269.16C29.66 264.33 27.6101 258.96 27.7701 253.83C27.8 253.05 26.8201 252.23 26.8701 251.55C27.3101 249.61 27.7501 247.67 28.2001 245.73C28.2901 245.33 28.31 244.84 28.56 244.55C32.05 240.37 29.45 235.38 30.42 230.88C30.47 230.65 30.46 230.26 30.32 230.16C26.36 227.17 31.33 226.49 31.75 224.64C31.9 223.96 32.46 223.34 32.48 222.68C32.61 218.1 32.67 213.53 32.7001 208.95C32.7201 207.08 32.23 205.19 34.48 203.98C35.54 203.41 35.14 200.05 34.01 199.41C32.15 198.36 32.8901 196.84 33.5601 195.8C35.5401 192.71 35.56 189.45 33.14 186.68C35.69 185.84 34.9001 183.74 34.9701 181.94C35.0201 180.61 34.8901 179.26 35.0601 177.95C35.2701 176.4 35.73 174.87 36.17 172.9C35.95 172.15 35.22 170.76 35.21 169.36C35.21 168.44 36.3001 167.55 36.7701 166.58C37.8701 164.32 38.43 161.6 40.05 159.83C42.96 156.66 41.34 153 42.05 149.63C42.27 148.58 42.8801 147.62 43.2201 146.58C43.5301 145.58 43.9 144.55 43.93 143.53C44.09 138.14 44.24 132.75 44.16 127.37C44.15 126.14 43.1501 124.95 42.7401 123.69C42.5701 123.15 42.5301 122.14 42.8301 121.94C44.3201 120.96 43.72 120.45 42.73 119.52C42.2701 119.09 42.3601 117.81 42.57 117.01C42.85 115.9 43.55 114.9 43.94 113.8C44.41 112.49 43.95 110.74 45.92 110.15C46.25 110.05 46.44 109.01 46.46 108.4C46.54 105.33 46.4601 102.25 46.6301 99.18C46.68 98.35 47.45 97.57 47.82 96.73C48.21 95.88 48.68 95.02 48.82 94.12C49.1301 92.21 48.79 90.29 50.44 88.59C51.26 87.75 51.66 85.91 49.85 84.72C48.43 83.78 48.6901 81.42 50.2901 80.97C53.1101 80.17 53.37 78.22 53.51 75.81C53.58 74.59 54.3701 73.4 54.8801 72.06C52.8601 70.1 52.82 68.9 54.94 66.3C55.95 65.06 55.58 60.82 54.44 59.68C54.11 59.35 54.04 58.76 53.85 58.29C55.92 57.47 54.94 55.33 55.69 54.08C56.6 52.57 57.8 50.86 60.12 50.88C62.09 50.89 64.34 51.56 65.59 49.13C65.69 48.92 66.19 48.84 66.5 48.84C70.5601 48.77 74.62 48.72 78.68 48.7C80.0101 48.69 81.36 48.93 82.65 48.75C84.01 48.57 85.0201 48.08 85.83 49.96C86.07 50.52 88.69 50.15 90.2 50.01C90.49 49.98 90.69 49.02 90.92 48.49C91.1 48.72 91.2701 48.95 91.44 49.19Z" fill="#F7CB4D"/>
</svg>
