<svg width="41" height="45" viewBox="0 0 41 45" fill="none" xmlns="http://www.w3.org/2000/svg">
<path fill-rule="evenodd" clip-rule="evenodd" d="M14.0844 11.2284C12.5835 11.4555 11.2101 12.2029 10.13 13.3805C9.21341 14.3798 8.66441 15.4628 8.39693 16.7994C8.2241 17.6631 8.26012 19.2526 8.47078 20.059C8.66402 20.7987 9.17169 21.8558 9.63719 22.4881C9.85109 22.7785 12.359 25.4508 15.2103 28.4264L20.3945 33.8366L25.5787 28.4264C28.43 25.4508 30.9418 22.7742 31.1605 22.4785C31.6326 21.84 32.1184 20.8173 32.3256 20.0254C32.4575 19.5218 32.4748 19.3069 32.4716 18.2108C32.4685 17.1569 32.447 16.8889 32.3302 16.4516C32.0014 15.2205 31.4705 14.2552 30.6122 13.3274C27.9656 10.4664 23.6339 10.4444 20.9331 13.2782L20.3948 13.843L19.8566 13.2782C19.3001 12.6943 18.4629 12.0772 17.8389 11.7909C16.664 11.2518 15.2899 11.0459 14.0844 11.2284ZM16.4738 12.3667C18.0863 12.8072 19.4715 13.9594 20.2094 15.474L20.3986 15.8624L20.6299 15.4068C21.7504 13.1999 24.0637 11.9228 26.4011 12.2208C28.5005 12.4885 30.1655 13.7556 31.0614 15.7673C31.6827 17.1624 31.7253 18.9645 31.1712 20.4183C30.9566 20.9815 30.5842 21.6455 30.2517 22.0577C30.1105 22.2329 27.835 24.6373 25.195 27.4007L20.395 32.4253L15.6175 27.4249C12.9898 24.6747 10.6849 22.225 10.4954 21.9811C10.0448 21.4011 9.55019 20.3461 9.3819 19.6061C9.23122 18.9435 9.20091 17.8033 9.31641 17.1424C9.59392 15.5548 10.5538 14.0504 11.8658 13.1468C12.4956 12.7131 13.3883 12.3645 14.2085 12.232C14.7849 12.1388 15.8775 12.2038 16.4738 12.3667Z" fill="white" stroke="white" stroke-width="0.906931"/>
</svg>
