<svg width="25" height="25" viewBox="0 0 25 25" fill="none" xmlns="http://www.w3.org/2000/svg">
<path d="M12.4125 1.01217C6.07799 1.01217 0.924712 6.16546 0.924712 12.5C0.924712 18.8346 6.07799 23.9878 12.4125 23.9878C18.747 23.9878 23.9003 18.8346 23.9003 12.5C23.9003 6.16546 18.747 1.01217 12.4125 1.01217ZM12.4125 22.563C11.8947 22.563 11.3281 22.2213 10.7801 21.5344C10.2614 20.8843 9.77694 19.9456 9.38675 18.7698C10.3531 18.6872 11.3692 18.6432 12.4125 18.6432C13.4557 18.6432 14.4719 18.6872 15.4382 18.7698C15.0481 19.9456 14.5636 20.8843 14.0449 21.5344C13.4968 22.2213 12.9303 22.563 12.4125 22.563ZM12.4125 17.2184C11.234 17.2184 10.0846 17.2728 8.99553 17.3751C8.71091 16.1499 8.52455 14.748 8.48018 13.2124H16.3448C16.3005 14.748 16.1141 16.1499 15.8295 17.3752C14.7403 17.2728 13.5909 17.2184 12.4125 17.2184ZM12.4125 2.43693C12.9303 2.43693 13.4968 2.77865 14.0449 3.46557C14.5636 4.1157 15.0481 5.05437 15.4383 6.23024C14.472 6.31283 13.4558 6.35684 12.4125 6.35684C11.3692 6.35684 10.353 6.31283 9.38671 6.23024C9.7769 5.05437 10.2614 4.1157 10.7801 3.46557C11.3281 2.77864 11.8947 2.43693 12.4125 2.43693ZM12.4125 7.78159C13.591 7.78159 14.7404 7.72725 15.8295 7.62488C16.1141 8.85014 16.3005 10.252 16.3448 11.7876H8.48017C8.52453 10.252 8.71088 8.85014 8.99549 7.62488C10.0846 7.72725 11.234 7.78159 12.4125 7.78159ZM4.18305 6.7193C5.1568 7.03134 6.30705 7.27968 7.56883 7.45793C7.27725 8.7734 7.09725 10.234 7.0551 11.7876H2.37527C2.5073 9.91004 3.15792 8.17415 4.18305 6.7193ZM2.37527 13.2124H7.0551C7.09726 14.766 7.27727 16.2266 7.56886 17.5421C6.30709 17.7203 5.15682 17.9687 4.18301 18.2807C3.15789 16.8258 2.50729 15.09 2.37527 13.2124ZM17.2561 17.5421C17.5477 16.2266 17.7277 14.766 17.7699 13.2124H22.4497C22.3177 15.09 21.6671 16.8258 20.642 18.2807C19.6682 17.9687 18.5179 17.7204 17.2561 17.5421ZM17.7699 11.7876C17.7278 10.234 17.5477 8.7734 17.2562 7.45793C18.518 7.27969 19.6682 7.03136 20.642 6.71932C21.6671 8.17417 22.3177 9.91005 22.4497 11.7876H17.7699ZM15.4024 2.89141C17.0389 3.40173 18.4974 4.31945 19.6589 5.52586C18.8421 5.75118 17.9074 5.93442 16.8914 6.07134C16.5019 4.8095 15.9969 3.72746 15.4024 2.89141ZM7.93356 6.07134C6.9176 5.93442 5.98287 5.75116 5.16607 5.52584C6.32757 4.31942 7.7861 3.4017 9.42262 2.89139C8.82811 3.72744 8.32307 4.80949 7.93356 6.07134ZM7.93361 18.9287C8.32314 20.1906 8.82819 21.2726 9.42272 22.1087C7.78619 21.5984 6.32764 20.6807 5.16613 19.4742C5.98297 19.2489 6.9177 19.0656 7.93361 18.9287ZM16.8914 18.9287C17.9073 19.0656 18.842 19.2489 19.6588 19.4742C18.4973 20.6806 17.0388 21.5983 15.4023 22.1086C15.9968 21.2726 16.5019 20.1906 16.8914 18.9287Z" fill="white" stroke="white" stroke-width="0.30231"/>
</svg>
